<svg width="394" height="173" viewBox="0 0 394 173" fill="none" xmlns="http://www.w3.org/2000/svg">
<g clip-path="url(#clip0_796_97694)">
<path d="M354.8 17.53V112.13C354.8 113.81 353.44 115.16 351.76 115.16H196.04C194.36 115.16 193 113.81 193 112.13V17.53C193 15.86 194.36 14.5 196.04 14.5H351.76C353.44 14.5 354.8 15.86 354.8 17.53ZM347.91 101.71V26.27C347.91 23.09 345.33 20.51 342.15 20.51H205.19C202.01 20.51 199.43 23.09 199.43 26.27V101.71C199.43 104.89 202.01 107.47 205.19 107.47H342.15C345.33 107.47 347.91 104.89 347.91 101.71Z" fill="#EBD2FF"/>
<path d="M314.02 81.54C315.34 81.54 316.4 82.61 316.4 83.92C316.4 85.23 315.34 86.29 314.02 86.29C312.7 86.29 311.65 85.23 311.65 83.92C311.65 82.61 312.71 81.54 314.02 81.54Z" fill="#EBD2FF"/>
<path d="M312.85 64.66C314.15 64.66 315.2 65.71 315.2 67.01C315.2 67.66 314.94 68.25 314.51 68.67C314.09 69.1 313.5 69.36 312.85 69.36H251.97C250.67 69.36 249.62 68.31 249.62 67.01C249.62 66.36 249.88 65.77 250.31 65.35C250.73 64.92 251.32 64.66 251.97 64.66H312.85Z" fill="#EBD2FF"/>
<path d="M307.82 81.54C309.13 81.54 310.2 82.61 310.2 83.92C310.2 85.23 309.13 86.29 307.82 86.29C306.51 86.29 305.45 85.23 305.45 83.92C305.45 82.61 306.51 81.54 307.82 81.54Z" fill="#EBD2FF"/>
<path d="M301.62 81.54C302.93 81.54 303.99 82.61 303.99 83.92C303.99 85.23 302.93 86.29 301.62 86.29C300.31 86.29 299.24 85.23 299.24 83.92C299.24 82.61 300.31 81.54 301.62 81.54Z" fill="#EBD2FF"/>
<path d="M295.42 81.54C296.73 81.54 297.79 82.61 297.79 83.92C297.79 85.23 296.73 86.29 295.42 86.29C294.11 86.29 293.04 85.23 293.04 83.92C293.04 82.61 294.1 81.54 295.42 81.54Z" fill="#EBD2FF"/>
<path d="M289.21 81.54C290.53 81.54 291.59 82.61 291.59 83.92C291.59 85.23 290.53 86.29 289.21 86.29C287.89 86.29 286.84 85.23 286.84 83.92C286.84 82.61 287.9 81.54 289.21 81.54Z" fill="#EBD2FF"/>
<path d="M283.01 81.54C284.32 81.54 285.39 82.61 285.39 83.92C285.39 85.23 284.32 86.29 283.01 86.29C281.7 86.29 280.64 85.23 280.64 83.92C280.64 82.61 281.7 81.54 283.01 81.54Z" fill="#EBD2FF"/>
<path d="M276.81 81.54C278.12 81.54 279.18 82.61 279.18 83.92C279.18 85.23 278.12 86.29 276.81 86.29C275.5 86.29 274.43 85.23 274.43 83.92C274.43 82.61 275.5 81.54 276.81 81.54Z" fill="#EBD2FF"/>
<path d="M270.61 81.54C271.92 81.54 272.98 82.61 272.98 83.92C272.98 85.23 271.92 86.29 270.61 86.29C269.3 86.29 268.23 85.23 268.23 83.92C268.23 82.61 269.29 81.54 270.61 81.54Z" fill="#EBD2FF"/>
<path d="M264.4 81.54C265.71 81.54 266.78 82.61 266.78 83.92C266.78 85.23 265.71 86.29 264.4 86.29C263.09 86.29 262.03 85.23 262.03 83.92C262.03 82.61 263.09 81.54 264.4 81.54Z" fill="#EBD2FF"/>
<path d="M258.2 81.54C259.51 81.54 260.58 82.61 260.58 83.92C260.58 85.23 259.51 86.29 258.2 86.29C256.89 86.29 255.83 85.23 255.83 83.92C255.83 82.61 256.89 81.54 258.2 81.54Z" fill="#EBD2FF"/>
<path d="M252 81.54C253.31 81.54 254.37 82.61 254.37 83.92C254.37 85.23 253.31 86.29 252 86.29C250.69 86.29 249.62 85.23 249.62 83.92C249.62 82.61 250.69 81.54 252 81.54Z" fill="#EBD2FF"/>
<path d="M237.49 61.5699C240.2 61.5699 242.4 63.7699 242.4 66.4699C242.4 69.1699 240.2 71.3699 237.49 71.3699C234.78 71.3699 232.59 69.1799 232.59 66.4699C232.59 63.7599 234.79 61.5699 237.49 61.5699ZM240.5 68.9799C239.68 68.3299 238.63 67.9399 237.49 67.9399C236.35 67.9399 235.31 68.3299 234.49 68.9799C235.32 69.9899 236.5 70.3899 237.49 70.3899C238.48 70.3899 239.67 69.9899 240.5 68.9799ZM239.21 65.2499C239.21 64.2999 238.44 63.5299 237.49 63.5299C236.54 63.5299 235.78 64.2999 235.78 65.2499C235.78 66.1999 236.55 66.9599 237.49 66.9599C238.43 66.9599 239.21 66.1899 239.21 65.2499Z" fill="#EBD2FF"/>
<path d="M240.23 83.43V86.86C240.23 87.67 239.57 88.33 238.76 88.33H234.84C234.03 88.33 233.37 87.67 233.37 86.86V83.43C233.37 82.79 233.78 82.24 234.36 82.04C234.35 82.01 234.35 81.99 234.35 81.96V80.98C234.35 79.62 235.45 78.53 236.8 78.53C238.15 78.53 239.25 79.62 239.25 80.98V81.96C239.25 81.96 239.25 82.01 239.24 82.04C239.82 82.24 240.23 82.79 240.23 83.43ZM239.25 86.86V83.43C239.25 83.16 239.03 82.94 238.76 82.94H234.84C234.57 82.94 234.35 83.16 234.35 83.43V86.86C234.35 87.13 234.57 87.35 234.84 87.35H238.76C239.03 87.35 239.25 87.13 239.25 86.86ZM238.27 81.96V80.98C238.27 80.17 237.61 79.51 236.8 79.51C235.99 79.51 235.33 80.17 235.33 80.98V81.96H238.27Z" fill="#EBD2FF"/>
<path d="M239.25 83.4299V86.8599C239.25 87.1299 239.03 87.3499 238.76 87.3499H234.84C234.57 87.3499 234.35 87.1299 234.35 86.8599V83.4299C234.35 83.1599 234.57 82.9399 234.84 82.9399H238.76C239.03 82.9399 239.25 83.1599 239.25 83.4299ZM237.78 84.8999C237.78 84.3599 237.34 83.9199 236.8 83.9199C236.26 83.9199 235.82 84.3599 235.82 84.8999C235.82 85.4399 236.26 85.8799 236.8 85.8799C237.34 85.8799 237.78 85.4399 237.78 84.8999Z" fill="#EBD2FF"/>
<path d="M238.27 80.98V81.96H235.33V80.98C235.33 80.17 235.99 79.51 236.8 79.51C237.61 79.51 238.27 80.17 238.27 80.98Z" fill="#EBD2FF"/>
<path d="M236.8 85.88C237.341 85.88 237.78 85.4413 237.78 84.9C237.78 84.3588 237.341 83.92 236.8 83.92C236.259 83.92 235.82 84.3588 235.82 84.9C235.82 85.4413 236.259 85.88 236.8 85.88Z" fill="#EBD2FF"/>
<path d="M334.14 41.6H347.91V101.71C347.91 104.89 345.33 107.47 342.15 107.47H205.19C202.01 107.47 199.43 104.89 199.43 101.71V41.6H334.14ZM327.13 88.95V60.95C327.13 57.86 324.62 55.36 321.53 55.36H227.46C224.37 55.36 221.87 57.86 221.87 60.95V88.95C221.87 92.04 224.37 94.54 227.46 94.54H321.53C324.62 94.54 327.13 92.04 327.13 88.95Z" fill="#FAF5F5"/>
<path d="M347.91 26.27V41.6H334.14V38.82C338.5 38.82 342.04 35.28 342.04 30.92C342.04 26.56 338.5 23.01 334.14 23.01V20.51H342.15C345.33 20.51 347.91 23.09 347.91 26.27Z" fill="#FAF5F5"/>
<path d="M334.14 23.01C338.5 23.01 342.04 26.55 342.04 30.92C342.04 35.29 338.5 38.82 334.14 38.82C329.78 38.82 326.24 35.28 326.24 30.92C326.24 26.56 329.78 23.01 334.14 23.01ZM336.43 33.2C337.69 31.94 337.69 29.89 336.43 28.63C335.17 27.37 333.11 27.36 331.85 28.63C330.59 29.89 330.59 31.94 331.85 33.2C333.11 34.47 335.16 34.47 336.43 33.2Z" fill="#FADCB4"/>
<path d="M336.43 28.63C337.69 29.89 337.69 31.94 336.43 33.2C335.17 34.46 333.11 34.47 331.85 33.2C330.59 31.94 330.59 29.89 331.85 28.63C333.11 27.36 335.16 27.36 336.43 28.63Z" fill="#8C96A0"/>
<path d="M334.14 38.82V41.6H199.43V26.27C199.43 23.09 202.01 20.51 205.19 20.51H334.14V23.01C329.78 23.01 326.24 26.55 326.24 30.92C326.24 35.29 329.78 38.82 334.14 38.82ZM321.13 32.13V31.42C321.13 29.92 319.92 28.71 318.42 28.71H233.44C231.95 28.71 230.73 29.92 230.73 31.42V32.13C230.73 33.63 231.95 34.85 233.44 34.85H318.42C319.92 34.85 321.13 33.63 321.13 32.13ZM226.64 31.78C226.64 30.08 225.26 28.71 223.57 28.71C221.88 28.71 220.5 30.08 220.5 31.78C220.5 33.48 221.87 34.85 223.57 34.85C225.27 34.85 226.64 33.47 226.64 31.78ZM217.69 31.78C217.69 30.08 216.32 28.71 214.62 28.71C212.92 28.71 211.55 30.08 211.55 31.78C211.55 33.48 212.93 34.85 214.62 34.85C216.31 34.85 217.69 33.47 217.69 31.78ZM208.88 31.78C208.88 30.08 207.51 28.71 205.81 28.71C204.11 28.71 202.74 30.08 202.74 31.78C202.74 33.48 204.12 34.85 205.81 34.85C207.5 34.85 208.88 33.47 208.88 31.78Z" fill="#FAF5F5"/>
<path d="M327.13 60.95V88.95C327.13 92.04 324.62 94.54 321.53 94.54H227.46C224.37 94.54 221.87 92.04 221.87 88.95V60.95C221.87 57.86 224.37 55.36 227.46 55.36H321.53C324.62 55.36 327.13 57.86 327.13 60.95ZM316.4 83.92C316.4 82.61 315.34 81.54 314.02 81.54C312.7 81.54 311.65 82.61 311.65 83.92C311.65 85.23 312.71 86.29 314.02 86.29C315.33 86.29 316.4 85.23 316.4 83.92ZM315.2 67.01C315.2 65.71 314.15 64.66 312.85 64.66H251.97C251.32 64.66 250.73 64.92 250.31 65.35C249.88 65.77 249.62 66.36 249.62 67.01C249.62 68.31 250.67 69.36 251.97 69.36H312.85C313.5 69.36 314.09 69.1 314.51 68.67C314.94 68.25 315.2 67.66 315.2 67.01ZM310.2 83.92C310.2 82.61 309.13 81.54 307.82 81.54C306.51 81.54 305.45 82.61 305.45 83.92C305.45 85.23 306.51 86.29 307.82 86.29C309.13 86.29 310.2 85.23 310.2 83.92ZM303.99 83.92C303.99 82.61 302.93 81.54 301.62 81.54C300.31 81.54 299.24 82.61 299.24 83.92C299.24 85.23 300.31 86.29 301.62 86.29C302.93 86.29 303.99 85.23 303.99 83.92ZM297.79 83.92C297.79 82.61 296.73 81.54 295.42 81.54C294.11 81.54 293.04 82.61 293.04 83.92C293.04 85.23 294.1 86.29 295.42 86.29C296.74 86.29 297.79 85.23 297.79 83.92ZM291.59 83.92C291.59 82.61 290.53 81.54 289.21 81.54C287.89 81.54 286.84 82.61 286.84 83.92C286.84 85.23 287.9 86.29 289.21 86.29C290.52 86.29 291.59 85.23 291.59 83.92ZM285.39 83.92C285.39 82.61 284.32 81.54 283.01 81.54C281.7 81.54 280.64 82.61 280.64 83.92C280.64 85.23 281.7 86.29 283.01 86.29C284.32 86.29 285.39 85.23 285.39 83.92ZM279.18 83.92C279.18 82.61 278.12 81.54 276.81 81.54C275.5 81.54 274.43 82.61 274.43 83.92C274.43 85.23 275.5 86.29 276.81 86.29C278.12 86.29 279.18 85.23 279.18 83.92ZM272.98 83.92C272.98 82.61 271.92 81.54 270.61 81.54C269.3 81.54 268.23 82.61 268.23 83.92C268.23 85.23 269.29 86.29 270.61 86.29C271.93 86.29 272.98 85.23 272.98 83.92ZM266.78 83.92C266.78 82.61 265.71 81.54 264.4 81.54C263.09 81.54 262.03 82.61 262.03 83.92C262.03 85.23 263.09 86.29 264.4 86.29C265.71 86.29 266.78 85.23 266.78 83.92ZM260.58 83.92C260.58 82.61 259.51 81.54 258.2 81.54C256.89 81.54 255.83 82.61 255.83 83.92C255.83 85.23 256.89 86.29 258.2 86.29C259.51 86.29 260.58 85.23 260.58 83.92ZM254.37 83.92C254.37 82.61 253.31 81.54 252 81.54C250.69 81.54 249.62 82.61 249.62 83.92C249.62 85.23 250.69 86.29 252 86.29C253.31 86.29 254.37 85.23 254.37 83.92ZM242.4 66.47C242.4 63.77 240.2 61.57 237.49 61.57C234.78 61.57 232.59 63.77 232.59 66.47C232.59 69.17 234.79 71.37 237.49 71.37C240.19 71.37 242.4 69.18 242.4 66.47ZM240.23 86.86V83.43C240.23 82.79 239.82 82.24 239.24 82.04C239.25 82.01 239.25 81.99 239.25 81.96V80.98C239.25 79.62 238.15 78.53 236.8 78.53C235.45 78.53 234.35 79.62 234.35 80.98V81.96C234.35 81.96 234.35 82.01 234.36 82.04C233.78 82.24 233.37 82.79 233.37 83.43V86.86C233.37 87.67 234.03 88.33 234.84 88.33H238.76C239.57 88.33 240.23 87.67 240.23 86.86Z" fill="white"/>
<path d="M321.13 31.42V32.13C321.13 33.63 319.92 34.85 318.42 34.85H233.44C231.95 34.85 230.73 33.63 230.73 32.13V31.42C230.73 29.92 231.95 28.71 233.44 28.71H318.42C319.92 28.71 321.13 29.92 321.13 31.42Z" fill="#D2DCE6"/>
<path d="M305.82 149.82H240.1C240.1 146.49 242.8 143.79 246.13 143.79H260.74V146.8H285.18V143.79H299.79C303.12 143.79 305.82 146.49 305.82 149.82Z" fill="#D2DCE6"/>
<path d="M285.18 143.79H260.74V146.8H285.18V143.79Z" fill="#D2DCE6"/>
<path d="M285.18 115.16V143.79H260.74V115.16H285.18ZM284.16 120.49V115.96H261.68V120.49H284.16Z" fill="#D2DCE6"/>
<path d="M284.16 115.96H261.68V120.49H284.16V115.96Z" fill="black"/>
<path d="M223.57 34.85C225.266 34.85 226.64 33.4755 226.64 31.78C226.64 30.0845 225.266 28.71 223.57 28.71C221.874 28.71 220.5 30.0845 220.5 31.78C220.5 33.4755 221.874 34.85 223.57 34.85Z" fill="#8C96A0"/>
<path d="M214.62 34.85C216.316 34.85 217.69 33.4755 217.69 31.78C217.69 30.0845 216.316 28.71 214.62 28.71C212.925 28.71 211.55 30.0845 211.55 31.78C211.55 33.4755 212.925 34.85 214.62 34.85Z" fill="#8C96A0"/>
<path d="M205.81 34.85C207.506 34.85 208.88 33.4755 208.88 31.78C208.88 30.0845 207.506 28.71 205.81 28.71C204.115 28.71 202.74 30.0845 202.74 31.78C202.74 33.4755 204.115 34.85 205.81 34.85Z" fill="#8C96A0"/>
<path d="M285.18 115.16V143.79" stroke="#161616" stroke-width="2" stroke-linecap="round" stroke-linejoin="round"/>
<path d="M260.74 143.79V115.16" stroke="#161616" stroke-width="2" stroke-linecap="round" stroke-linejoin="round"/>
<path d="M240.1 149.82C240.1 146.49 242.8 143.79 246.13 143.79H299.79C303.12 143.79 305.82 146.49 305.82 149.82" stroke="#161616" stroke-width="2" stroke-linecap="round" stroke-linejoin="round"/>
<path d="M260.74 115.16H196.04C194.36 115.16 193 113.81 193 112.13V17.53C193 15.86 194.36 14.5 196.04 14.5H351.76C353.44 14.5 354.8 15.86 354.8 17.53V112.13C354.8 113.81 353.44 115.16 351.76 115.16H260.74Z" stroke="#161616" stroke-width="2" stroke-linecap="round" stroke-linejoin="round"/>
<path d="M347.91 41.6V101.71C347.91 104.89 345.33 107.47 342.15 107.47H205.19C202.01 107.47 199.43 104.89 199.43 101.71V26.27C199.43 23.09 202.01 20.51 205.19 20.51H342.15C345.33 20.51 347.91 23.09 347.91 26.27V41.6Z" stroke="#161616" stroke-width="2" stroke-linecap="round" stroke-linejoin="round"/>
<path d="M199.43 41.6H334.14H347.91" stroke="#161616" stroke-width="2" stroke-linecap="round" stroke-linejoin="round"/>
<path d="M337.92 54.21V34.28L352.35 48.7H345.79L350.13 58.11L347.01 59.64L342.29 49.97L337.92 54.21Z" fill="black"/>
<path fill-rule="evenodd" clip-rule="evenodd" d="M338.9 33.07L356.03 50.19H348.22L352.19 58.79L346.25 61.7L341.81 52.6L336.32 57.93V34.15C336.32 32.8 337.95 32.13 338.9 33.08V33.07ZM342.29 49.97L347.01 59.64L350.13 58.11L345.79 48.7H352.35L337.92 34.28V54.21L342.29 49.97Z" fill="white"/>
</g>
<path d="M68.3701 136.56C68.3701 137.26 68.7001 137.88 69.2201 138.27L51.1401 146.45C50.5901 146.73 50.0001 146.72 49.5001 146.51C49.3201 146.4 49.1501 146.28 48.9701 146.17C48.5801 145.83 48.3301 145.33 48.3301 144.74V31.8C48.3301 31.25 48.6501 30.83 49.0701 30.63C49.5001 30.42 50.0401 30.45 50.4601 30.81L68.3701 44.85L69.0001 45.47C68.6101 45.86 68.3701 46.39 68.3701 46.98V136.56Z" fill="#FAB4B4"/>
<path d="M68.37 136.56V46.98C68.37 46.39 68.61 45.86 69 45.47C69.39 45.08 69.92 44.85 70.51 44.85H135.48C140.03 44.85 143.73 48.54 143.73 53.09V130.45C143.73 135.01 140.03 138.7 135.48 138.7H70.51C70.03 138.7 69.58 138.54 69.22 138.27C68.7 137.88 68.37 137.26 68.37 136.56ZM136.2 118.35V55.16C136.2 52.88 134.35 51.03 132.07 51.03H78.75C76.46 51.03 74.61 52.88 74.61 55.16V118.35C74.61 119.33 74.95 120.24 75.53 120.95C76.29 121.88 77.45 122.48 78.75 122.48H132.07C134.35 122.48 136.2 120.63 136.2 118.35Z" fill="#FAB4B4"/>
<path d="M84.66 114.45L75.63 120.88L75.53 120.95C74.95 120.24 74.61 119.33 74.61 118.35V55.16C74.61 52.88 76.46 51.03 78.75 51.03H84.66V114.45Z" fill="#8C96A0"/>
<path d="M78.75 122.48C77.45 122.48 76.29 121.88 75.53 120.95L75.63 120.88L84.66 114.45H136.2V118.35C136.2 120.63 134.35 122.48 132.07 122.48H78.75Z" fill="#D2DCE6"/>
<path d="M85.79 114.45H84.66V51.03H132.07C134.35 51.03 136.2 52.88 136.2 55.16V114.45H85.79Z" fill="#D2DCE6"/>
<path d="M49.07 30.63C48.65 30.83 48.33 31.25 48.33 31.8V144.74C48.33 145.33 48.58 145.83 48.97 146.17C46.42 144.5 43.99 142.64 42.31 140.39L44.24 140.29V37.23L41.65 37.14C43.26 34.03 45.96 31.51 49.07 30.63Z" fill="#001423"/>
<path d="M44.24 37.23V140.29L42.31 140.39C40.92 138.51 40.04 136.37 40.04 133.84V43.44C40.04 41.28 40.63 39.09 41.65 37.14L44.24 37.23Z" fill="#001423"/>
<path d="M69.22 138.27C69.58 138.54 70.03 138.7 70.51 138.7H135.48C140.03 138.7 143.73 135.01 143.73 130.45V53.09C143.73 48.54 140.03 44.85 135.48 44.85H70.51C69.92 44.85 69.38 45.09 69 45.47C68.62 45.85 68.37 46.39 68.37 46.98V136.56C68.37 137.26 68.7 137.88 69.22 138.27Z" stroke="#161616" stroke-width="2" stroke-linecap="round" stroke-linejoin="round"/>
<path d="M68.37 44.85L50.46 30.81C50.04 30.45 49.5 30.42 49.07 30.63C48.65 30.83 48.33 31.25 48.33 31.8V144.74C48.33 145.33 48.58 145.83 48.97 146.17C49.13 146.32 49.31 146.43 49.5 146.51C50 146.72 50.59 146.73 51.14 146.45L69.22 138.27" stroke="#161616" stroke-width="2" stroke-linecap="round" stroke-linejoin="round"/>
<path d="M49.5 30.52C49.36 30.55 49.21 30.59 49.07 30.63C45.96 31.51 43.26 34.03 41.65 37.14C40.63 39.09 40.04 41.28 40.04 43.44V133.84C40.04 136.37 40.92 138.51 42.31 140.39C43.99 142.64 46.42 144.5 48.97 146.17C49.15 146.28 49.32 146.4 49.5 146.51" stroke="#161616" stroke-width="2" stroke-linecap="round" stroke-linejoin="round"/>
<path fill-rule="evenodd" clip-rule="evenodd" d="M44.24 36.23C44.7923 36.23 45.24 36.6777 45.24 37.23V140.29C45.24 140.842 44.7923 141.29 44.24 141.29C43.6877 141.29 43.24 140.842 43.24 140.29V37.23C43.24 36.6777 43.6877 36.23 44.24 36.23Z" fill="#3A3A3C"/>
<path d="M39.19 75.31C36.35 75.31 34.04 77.62 34.04 80.47V93.6C34.04 96.44 36.35 98.75 39.19 98.75" stroke="#161616" stroke-width="2" stroke-linecap="round" stroke-linejoin="round"/>
<path d="M24 131.64H40.04" stroke="#161616" stroke-width="2" stroke-linecap="round" stroke-linejoin="round"/>
<path d="M143.73 133.45H158.96" stroke="#161616" stroke-width="2" stroke-linecap="round" stroke-linejoin="round"/>
<path d="M136.2 114.45V118.35C136.2 120.63 134.35 122.48 132.07 122.48H78.75C77.45 122.48 76.29 121.88 75.53 120.95C74.95 120.24 74.61 119.33 74.61 118.35V55.16C74.61 52.88 76.46 51.03 78.75 51.03H132.07C134.35 51.03 136.2 52.88 136.2 55.16V114.45Z" stroke="#161616" stroke-width="2" stroke-linecap="round" stroke-linejoin="round"/>
<path d="M148.57 66.37L146.12 68.01" stroke="#161616" stroke-width="2" stroke-linecap="round" stroke-linejoin="round"/>
<path d="M84.66 51.03V114.45L75.63 120.88" stroke="#161616" stroke-width="2" stroke-linecap="round" stroke-linejoin="round"/>
<path d="M85.79 114.45H136.15" stroke="#161616" stroke-width="2" stroke-linecap="round" stroke-linejoin="round"/>
<path d="M132.43 68.63L131.98 70.39C132.97 69.66 132.43 68.63 132.43 68.63ZM148.87 34.69C148.87 34.69 154.72 35.93 157.98 40.81C160 43.83 160.35 47.6 160.35 47.6C165.17 48.87 167.47 56.07 167.9 56.85C170.89 62.46 169.27 66.58 177.65 75.86C178.45 76.75 183.87 77.98 184.83 78.63C185.89 79.36 179.04 79.59 180.01 80.39C181.1 81.29 190.38 84.34 191.34 85.33C192.2 86.2 186.3 85.6 187.06 86.54C187.65 87.26 194.36 90.25 194.54 90.52C194.97 91.17 191.09 91.03 191.49 91.69C192.25 92.95 197.71 96.98 198.34 98.3C198.81 99.29 194.36 98.41 195.1 99.2C197.1 101.28 200.44 110.77 200.53 111.41C200.63 112.05 196.66 109.5 196.73 110.14C196.82 110.9 200.98 116.62 200.99 117.11C201.01 117.71 197.64 115.54 197.64 116.13C197.64 116.61 200.48 123.01 200.54 123.44C201 126.76 198.25 124.31 198.19 124.71C197.41 130.89 195.94 135.39 193.11 139.74L192.8 140.36C198.88 143.42 208.55 140.37 210.97 134.19C211.43 133.04 211.75 131.94 211.95 130.98C212.16 130.17 212.25 128.95 212.29 127.54C212.31 127.36 212.28 125.14 212.22 123.58C212.17 123.55 212.09 121.46 212.05 119.24C212 117.74 211.98 116.2 212.04 114.64C212.32 106.84 214.5 98.54 224.53 92.49C237.42 84.72 244.94 97.38 237.44 107.9C236.23 109.58 231.47 113.73 230.68 114.69C229.71 115.07 229.38 111.18 228.93 111.78C228.48 112.39 227.61 120.37 227.17 120.72C225.38 125.94 224.72 120.26 224.58 119.25C224.15 120.06 223.89 128.86 223.47 131.26C223.05 132.49 220.9 125.33 220.48 128.19C219.75 130.77 218.05 141.97 217.31 143.86C216.57 145.4 215.24 140.05 214.48 141.46C211.4 147.06 208.61 149.78 204.69 150.32C199.91 150.98 194.94 149.58 191.24 147.38L190.46 150.64H158.97C161.33 148.09 162.41 147.53 162.41 147.53L162.3 144.69L165.9 144.56L163.22 141.55C162.44 140.68 161.71 139.75 161.06 138.77L160.68 139.03L159.56 143.83L159.59 144.8L158.03 144.85L156.81 144.89C154.18 145.35 152.27 147.65 152.33 150.32L151.87 150.59L138.27 150.42C138.06 146 143.66 141.8 148.16 141.3C148.13 129.9 141.69 122.1 138.84 111.79C138.64 111.11 136.43 113.69 136.28 112.97C136.13 112.26 138.03 108.28 137.92 107.54C137.58 105.37 134.73 106.25 134.73 106.25C134.73 106.25 137.47 98.49 137.54 98.19C137.66 97.71 135.12 98.68 135.27 98.19C135.41 97.76 139.2 93.61 138.2 94.29C137.65 94.68 135.54 93.76 135.54 93.76C135.54 93.76 141.26 89.94 142.13 88.79C142.52 88.27 138.4 88.34 138.84 87.82C139.19 87.41 144.99 84.75 144.64 84.3C144.18 83.71 141.63 80.71 142.95 80.58C134.18 81.43 130.86 76.37 130.92 68.64C130.92 67.81 135.4 67.55 135.4 67.55L135.49 65.63C134.81 57.57 138.57 53.13 142.35 50.73C145.81 48.53 149.28 48.04 149.28 48.04L149.14 43.19L148.89 34.71L148.87 34.69ZM140.58 62.04C140.58 61.75 140.34 61.52 140.06 61.52C139.78 61.52 139.54 61.75 139.54 62.04C139.54 62.33 139.77 62.56 140.06 62.56C140.35 62.56 140.58 62.32 140.58 62.04Z" fill="#FAF5F5"/>
<path d="M163.2 141.52L165.88 144.53L162.28 144.66L159.58 144.77L159.55 143.8L160.67 139L161.05 138.74C161.7 139.72 162.43 140.65 163.21 141.52H163.2Z" fill="#FAF5F5"/>
<path d="M162.28 144.66L162.39 147.5C162.39 147.5 161.3 148.05 158.95 150.61H154.66V150.3C157.02 147.75 158.1 147.19 158.1 147.19L158.01 144.82L159.57 144.77L162.27 144.66H162.28Z" fill="#FAF5F5"/>
<path d="M158.01 144.82L158.1 147.19C158.1 147.19 157.01 147.74 154.66 150.3V150.61H152.31L151.85 150.57L152.31 150.3C152.26 147.63 154.17 145.33 156.79 144.87L158.01 144.83V144.82Z" fill="#FAF5F5"/>
<path d="M149.12 43.17L149.26 48.02C149.26 48.02 145.8 48.51 142.33 50.71L141.5 50.13C141.5 50.13 134.27 39.9 137.65 38.51C141.03 37.12 149.11 43.16 149.11 43.16L149.12 43.17Z" fill="#FAF5F5"/>
<path d="M140.05 62.56C140.337 62.56 140.57 62.3272 140.57 62.04C140.57 61.7528 140.337 61.52 140.05 61.52C139.763 61.52 139.53 61.7528 139.53 62.04C139.53 62.3272 139.763 62.56 140.05 62.56Z" fill="#FAF5F5"/>
<path d="M132.43 68.63C132.43 68.63 132.97 69.66 131.98 70.39L132.43 68.63Z" fill="#FAF5F5"/>
<path d="M191.65 150.61H190.43H158.94H154.66H152.31" stroke="#161616" stroke-width="2" stroke-linecap="round" stroke-linejoin="round"/>
<path d="M152.31 150.29C152.26 147.62 154.17 145.32 156.79 144.86L158.01 144.82L159.57 144.77L162.27 144.66L165.87 144.53L163.19 141.52C162.41 140.65 161.68 139.72 161.03 138.74C158.2 134.54 156.64 129.47 157.84 124.45C159.47 117.58 161.63 107.88 181.76 107.88" stroke="#161616" stroke-width="2" stroke-linecap="round" stroke-linejoin="round"/>
<path d="M191.25 147.19L191.21 147.35L190.43 150.61" stroke="#161616" stroke-width="2" stroke-linecap="round" stroke-linejoin="round"/>
<path d="M193.1 139.74C195.93 135.4 197.4 130.89 198.18 124.71C198.23 124.31 200.98 126.76 200.53 123.44C200.48 123.02 197.63 116.61 197.63 116.13C197.63 115.53 201.01 117.7 200.98 117.11C200.97 116.62 196.81 110.9 196.72 110.14C196.65 109.5 200.62 112.05 200.52 111.41C200.43 110.77 197.09 101.28 195.09 99.2C194.34 98.41 198.79 99.29 198.33 98.3C197.7 96.98 192.24 92.95 191.48 91.69C191.08 91.03 194.97 91.17 194.53 90.52C194.35 90.25 187.64 87.25 187.05 86.54C186.29 85.61 192.19 86.2 191.33 85.33C190.36 84.34 181.08 81.29 180 80.39C179.03 79.59 185.88 79.36 184.82 78.63C183.86 77.98 178.45 76.75 177.64 75.86C169.26 66.58 170.88 62.46 167.89 56.85C167.47 56.07 165.16 48.87 160.34 47.6C160.34 47.6 159.99 43.83 157.97 40.81C154.71 35.92 148.86 34.69 148.86 34.69L149.11 43.17L149.25 48.02C149.25 48.02 145.79 48.51 142.32 50.71C138.54 53.11 134.77 57.55 135.46 65.61L135.37 67.53C135.37 67.53 130.89 67.79 130.89 68.62C130.82 76.35 134.15 81.41 142.92 80.56C141.61 80.69 144.16 83.7 144.61 84.28C144.96 84.73 139.16 87.39 138.81 87.8C138.36 88.32 142.49 88.25 142.1 88.77C141.23 89.92 135.51 93.74 135.51 93.74C135.51 93.74 137.62 94.66 138.17 94.27C139.17 93.59 135.38 97.73 135.24 98.17C135.09 98.66 137.63 97.69 137.51 98.17C137.43 98.46 134.7 106.23 134.7 106.23C134.7 106.23 137.56 105.35 137.89 107.52C138 108.26 136.1 112.24 136.25 112.95C136.4 113.67 138.62 111.08 138.81 111.77C141.65 122.08 148.09 129.88 148.13 141.28C143.62 141.78 138.03 145.98 138.24 150.4L151.84 150.57" stroke="#161616" stroke-width="2" stroke-linecap="round" stroke-linejoin="round"/>
<path d="M189.54 146.24C190.06 146.63 190.61 147 191.21 147.35C194.91 149.55 199.88 150.95 204.66 150.29C208.58 149.75 211.37 147.03 214.45 141.43C215.21 140.02 216.55 145.37 217.28 143.83C218.02 141.94 219.72 130.75 220.45 128.16C220.86 125.3 223.01 132.46 223.44 131.23C223.85 128.83 224.11 120.04 224.55 119.22C224.69 120.23 225.35 125.91 227.14 120.69C227.57 120.34 228.45 112.36 228.9 111.75C229.35 111.15 229.68 115.04 230.65 114.66C231.44 113.7 236.21 109.56 237.41 107.87C244.91 97.35 237.39 84.69 224.5 92.46C214.48 98.51 212.3 106.81 212.01 114.61C211.96 116.17 211.97 117.72 212.02 119.21C212.06 121.44 212.14 123.52 212.19 123.55C212.24 125.11 212.28 127.33 212.26 127.51C212.23 128.92 212.13 130.14 211.92 130.95C211.72 131.92 211.4 133.01 210.94 134.16C208.52 140.34 198.85 143.39 192.77 140.33C192.37 140.13 191.99 139.91 191.62 139.66" stroke="#161616" stroke-width="2" stroke-linecap="round" stroke-linejoin="round"/>
<path d="M148.87 34.69C148.87 34.69 155.62 43.17 156.77 48.05L152.97 45.88C152.97 45.88 152.7 47.37 153.43 47.68C153.43 47.68 152.46 47.34 151.98 48.05" stroke="#161616" stroke-width="2" stroke-linecap="round" stroke-linejoin="round"/>
<path d="M140.05 62.56C140.337 62.56 140.57 62.3272 140.57 62.04C140.57 61.7528 140.337 61.52 140.05 61.52C139.763 61.52 139.53 61.7528 139.53 62.04C139.53 62.3272 139.763 62.56 140.05 62.56Z" fill="#161616" stroke="#161616" stroke-width="2" stroke-linecap="round" stroke-linejoin="round"/>
<path d="M145.44 146.24C145.44 146.24 144.75 146.31 141.76 150.29" stroke="#161616" stroke-width="2" stroke-linecap="round" stroke-linejoin="round"/>
<path d="M149.13 146.24C149.13 146.24 148.42 146.31 145.44 150.29" stroke="#161616" stroke-width="2" stroke-linecap="round" stroke-linejoin="round"/>
<path d="M158.1 147.19C158.1 147.19 157.01 147.74 154.66 150.3" stroke="#161616" stroke-width="2" stroke-linecap="round" stroke-linejoin="round"/>
<path d="M162.39 147.5C162.39 147.5 161.3 148.05 158.95 150.61" stroke="#161616" stroke-width="2" stroke-linecap="round" stroke-linejoin="round"/>
<path d="M160.62 69.46C160.62 69.46 159.72 74.33 158.99 75.06L156.58 73.32C156.58 73.32 157.3 76.5 156.58 76.98C155.85 77.47 154.65 76.98 154.65 76.98" stroke="#161616" stroke-width="2" stroke-linecap="round" stroke-linejoin="round"/>
<path d="M149.12 43.17C149.12 43.17 141.03 37.13 137.66 38.52C134.29 39.91 141.51 50.14 141.51 50.14" stroke="#161616" stroke-width="2" stroke-linecap="round" stroke-linejoin="round"/>
<path d="M160.66 139L159.54 143.8" stroke="#161616" stroke-width="2" stroke-linecap="round" stroke-linejoin="round"/>
<path d="M136.75 70.35L143.62 70.07" stroke="#161616" stroke-width="2" stroke-linecap="round" stroke-linejoin="round"/>
<path d="M136.96 73.34L143.14 74.9" stroke="#161616" stroke-width="2" stroke-linecap="round" stroke-linejoin="round"/>
<path d="M132.43 68.63C132.43 68.63 132.97 69.66 131.98 70.39" stroke="#161616" stroke-width="2" stroke-linecap="round" stroke-linejoin="round"/>
<path d="M132.43 68.63V68.62" stroke="#161616" stroke-width="2" stroke-linecap="round" stroke-linejoin="round"/>
<defs>
<clipPath id="clip0_796_97694">
<rect width="164.03" height="137.32" fill="white" transform="translate(192 13.5)"/>
</clipPath>
</defs>
</svg>
