<svg width="362" height="305" viewBox="0 0 362 305" fill="none" xmlns="http://www.w3.org/2000/svg">
<g clip-path="url(#clip0_796_97699)">
<path d="M135.73 202.993C136.21 205.013 137.28 207.033 139.2 209.063H106.56C93.5 195.253 119.62 181.453 106.56 167.633H139.19C150.33 179.433 132.96 191.203 135.72 202.993H135.73ZM126.78 189.243C130.83 188.323 133.84 184.703 133.84 180.383C133.84 176.063 130.81 172.423 126.75 171.513C126.11 171.373 125.44 171.293 124.75 171.293C124.13 171.293 123.52 171.363 122.93 171.473C118.79 172.323 115.66 175.983 115.66 180.383C115.66 184.783 118.7 188.353 122.77 189.253C123.41 189.393 124.07 189.473 124.75 189.473C125.43 189.473 126.13 189.393 126.78 189.243Z" fill="white"/>
<path d="M132.54 239.313L133.55 240.863C129.86 243.303 126.37 245.353 123.8 246.353C115.46 249.553 87 252.743 87 252.743C87 252.743 94.78 247.143 101.38 240.883V239.323H132.54V239.313Z" fill="#FAF5F5"/>
<path d="M260.37 251.123C260.37 251.123 260.38 251.133 260.39 251.163L259.94 251.393C259.94 251.393 253.81 257.293 247.61 257.293C246.87 257.293 246.12 257.213 245.38 257.023C240.74 255.863 236.05 250.433 235.47 249.753L235.68 249.383C234.56 248.783 233.79 248.113 233.79 247.423C233.79 247.423 230.5 248.203 229.89 245.633C229.52 244.033 231.01 243.023 231.01 243.023L231.88 242.823L232.49 242.693L236.19 241.883L240.44 240.933L240.27 240.133L236.01 234.343C237.13 233.093 238.03 231.623 238.64 230.013L242.2 231.723L257.18 238.893L260.36 251.123H260.37Z" fill="#A16E4A"/>
<path d="M97.11 265.233C98.24 263.363 100.18 260.723 102.56 259.953H124.46L153.31 234.153L157.43 235.203L152.22 239.903L123.96 265.403H98.39L97.11 265.223V265.233Z" fill="#D2DCE6"/>
<path d="M209.85 184.823C209.95 185.413 210.06 185.993 210.18 186.583V187.893C210.18 188.723 210.51 189.453 211.05 190.013C211.41 191.283 211.83 192.543 212.29 193.783L211.9 193.923C210.92 194.583 209.6 194.643 208.58 194.083C207.99 193.753 207.52 193.253 207.09 192.733C205.9 191.243 205.06 189.463 204.68 187.593C204.5 186.703 204.42 185.753 204.66 184.893C204.91 184.013 205.53 183.213 206.38 182.933C208.62 182.893 209.16 184.203 209.61 184.853L209.87 184.813L209.85 184.823Z" fill="#A16E4A"/>
<path d="M133.84 180.373C133.84 184.693 130.83 188.313 126.78 189.233L126.7 188.903C126.7 188.903 128.7 187.263 128.77 180.363H133.83L133.84 180.373Z" fill="white"/>
<path d="M240.27 240.143L240.44 240.943L236.19 241.893L236.01 241.063L234.47 238.973L232.95 236.903C234.09 236.193 235.12 235.343 236.01 234.353L240.27 240.143Z" fill="#A16E4A"/>
<path d="M156.96 239.913L153.93 242.663L124.29 269.523L110.79 269.843L101.37 270.073L90.16 270.333L87 270.413L89.43 267.213H96.05C96.05 267.213 96.43 266.363 97.11 265.243L98.39 265.423H123.95L152.21 239.923H156.96V239.913Z" fill="#8C96A0"/>
<path d="M157.43 253.803L155.55 255.493L124.51 283.513L89.35 283.963L87 283.993C87 283.993 87.68 280.263 89.64 279.003H123.95L154.94 250.963C156.96 251.923 157.43 253.783 157.43 253.783V253.803Z" fill="#D2DCE6"/>
<path d="M120.89 180.373C120.96 186.393 122.48 188.403 122.87 188.823L122.77 189.243C118.7 188.343 115.66 184.713 115.66 180.373H120.9H120.89Z" fill="white"/>
<path d="M104.66 275.143C105.3 276.943 105.55 278.513 105.55 278.513V279.013H87L89.53 275.433H103.92L104.66 275.153V275.143Z" fill="#8C96A0"/>
<path d="M123.95 255.863L153.5 230.053L153.98 230.603L155.88 231.863L153.31 234.153L124.46 259.953H102.57H92.33H87L89.89 256.793V255.863H123.95Z" fill="#8C96A0"/>
<path d="M153.5 230.053L123.96 255.873H87L89.98 252.743V252.663L124.66 251.743L148.92 229.903L148.84 229.793C149.81 229.043 150.68 228.363 151.43 227.773L155.88 227.983L153.5 230.053Z" fill="#FAF5F5"/>
<path d="M114.6 278.513H105.55C105.55 278.513 105.3 276.953 104.66 275.143C104.01 273.343 102.97 271.323 101.38 270.393V270.053L110.79 269.823V270.383C110.79 270.383 112.77 272.223 113.87 274.943C114.29 276.003 114.6 277.213 114.6 278.493V278.513Z" fill="#A16E4A"/>
<path d="M231.85 242.623L234.28 239.113L234.47 238.973L236.02 241.063L236.2 241.883L232.5 242.703L231.89 242.833L231.85 242.623Z" fill="#A16E4A"/>
<path d="M222.3 272.333C219.08 274.963 216.35 278.613 214.87 282.213L213.84 281.763C210.06 280.033 204.5 276.603 204.5 276.603L189.93 281.173C192.36 277.353 196.72 273.403 199.5 271.903C207.47 271.903 214.32 272.313 222.3 272.313V272.333Z" fill="#FAF5F5"/>
<path d="M243.31 219.393L239.25 227.963H239.24C239.42 227.073 239.52 226.163 239.52 225.213C239.52 222.073 238.47 219.183 236.7 216.883L237.07 216.593L243.32 219.393H243.31Z" fill="#A16E4A"/>
<path d="M137.06 225.213L154.23 225.513C154.23 225.513 153.17 226.383 151.42 227.763C150.67 228.353 149.8 229.033 148.83 229.783C144.73 232.953 138.92 237.323 133.55 240.863L132.54 239.313C132.54 234.623 134.57 229.913 137.06 225.213Z" fill="#FAF5F5"/>
<path d="M126.74 171.503C130.8 172.413 133.83 176.043 133.83 180.373H128.77C128.78 180.223 128.78 180.073 128.78 179.903C128.78 174.063 126.69 171.673 126.69 171.673L126.73 171.503H126.74Z" fill="white"/>
<path d="M235.91 190.653H230.23C228.58 190.653 227.24 189.313 227.24 187.673V184.543C227.24 184.243 227.28 183.943 227.37 183.663C227.75 182.443 228.88 181.563 230.23 181.563H235.91C237.2 181.563 238.3 182.393 238.71 183.543C238.82 183.863 238.88 184.193 238.88 184.543V187.673C238.88 189.313 237.54 190.653 235.9 190.653H235.91Z" fill="#A16E4A"/>
<path d="M238.22 212.723C238.22 212.723 237.82 215.783 237.06 216.253L236.39 216.503C233.88 213.463 230.09 211.533 225.84 211.533C223.95 211.533 222.15 211.913 220.52 212.613L220.38 212.253C218.7 210.213 217.47 207.423 216.95 203.833C217.43 204.573 217.97 205.273 218.57 205.933C220.63 208.203 223.5 209.883 226.56 209.943C229.8 209.993 232.97 209.513 235.73 207.813C239.88 205.273 241.92 200.453 243.21 195.703L244.76 201.193C243.57 206.313 238.22 212.743 238.22 212.743V212.723Z" fill="#A16E4A"/>
<path d="M208.47 181.173C207.79 178.513 206.65 173.853 206.63 172.503C206.62 170.583 206.53 165.953 211.15 160.873C216.33 155.183 225.98 155.343 225.98 155.343C225.98 155.343 237.93 154.933 244.93 161.113C251.94 167.293 249.87 177.463 249.33 181.023L249.26 181.653C248.74 181.613 248.2 181.703 247.72 181.903C247.01 182.183 246.38 182.583 245.93 183.153L245.48 182.663C229.84 176.943 222.28 159.333 222.28 159.333L209.08 181.023L208.46 181.173H208.47Z" fill="#0A1E3C"/>
<path d="M205.45 203.023C202.67 200.283 205.62 196.903 208.57 194.083C209.59 194.633 210.92 194.583 211.89 193.923L212.28 193.783C212.8 195.203 213.37 196.623 213.95 198.033C214.69 199.813 215.5 201.583 216.52 203.213C216.03 203.463 214.89 204.123 213.16 205.463C210.32 207.653 207.84 210.213 205.73 213.033C201.58 210.403 202.34 205.063 205.44 203.033L205.45 203.023Z" fill="#0A1E3C"/>
<path d="M213.84 281.773L214.87 282.223C214.33 283.513 213.95 284.813 213.77 286.043C205.79 286.043 196.15 285.343 188.17 285.343C188.37 284.063 189.01 282.623 189.93 281.183L204.5 276.613C204.5 276.613 210.06 280.043 213.84 281.773Z" fill="#FAF5F5"/>
<path d="M222.29 184.883V187.893C222.29 189.573 220.93 190.933 219.26 190.933H213.22C212.36 190.933 211.59 190.583 211.05 190.013C210.71 188.883 210.42 187.743 210.18 186.583V184.893C210.18 183.223 211.54 181.863 213.22 181.863H219.26C220.52 181.863 221.6 182.623 222.05 183.713C222.2 184.083 222.29 184.483 222.29 184.893V184.883Z" fill="#A16E4A"/>
<path d="M203.5 265.063C215.05 265.213 226.59 265.353 238.14 265.513C225 272.663 218.09 283.283 217.43 290.283C204.97 290.043 192.51 289.803 180.06 289.553C181.8 282.403 189.62 271.983 203.5 265.073V265.063ZM189.93 281.183C189.01 282.623 188.37 284.063 188.17 285.343C196.15 285.343 205.79 286.043 213.77 286.043C213.94 284.803 214.32 283.513 214.87 282.223C216.35 278.613 219.08 274.963 222.3 272.343C214.32 272.343 207.47 271.933 199.5 271.933C196.72 273.433 192.36 277.373 189.93 281.203V281.183Z" fill="#FAF5F5"/>
<path d="M115.65 180.373C115.65 175.973 118.78 172.313 122.92 171.463L122.95 171.673C122.95 171.673 120.88 174.063 120.88 179.903C120.88 180.063 120.88 180.223 120.89 180.373H115.65Z" fill="white"/>
<path d="M227.24 184.543V187.673C227.24 189.313 228.58 190.653 230.23 190.653H235.91C237.55 190.653 238.89 189.313 238.89 187.673V184.543C238.89 184.193 238.82 183.863 238.72 183.543L238.89 183.473L245.49 182.643L245.94 183.133C246.4 182.573 247.03 182.163 247.73 181.883C248.21 181.683 248.75 181.593 249.27 181.633C249.81 181.673 250.32 181.873 250.71 182.263C251.39 182.973 251.46 184.053 251.38 185.043C251.37 185.203 251.35 185.373 251.33 185.523C250.99 188.323 249.73 191.023 247.78 193.063C247.37 193.493 246.92 193.903 246.39 194.153C245.48 194.583 244.46 194.793 243.46 194.713C243.38 195.043 243.3 195.353 243.21 195.683C241.92 200.433 239.88 205.253 235.73 207.793C232.97 209.483 229.8 209.973 226.56 209.923C223.5 209.873 220.63 208.183 218.57 205.913C217.97 205.263 217.43 204.553 216.95 203.813C216.9 203.563 216.86 203.303 216.83 203.043C216.83 203.043 216.73 203.083 216.54 203.193C215.52 201.563 214.7 199.793 213.97 198.013C213.38 196.603 212.82 195.193 212.3 193.763C211.84 192.523 211.42 191.263 211.06 189.993C211.6 190.573 212.37 190.913 213.23 190.913H219.27C220.94 190.913 222.3 189.553 222.3 187.873V184.863C222.3 184.453 222.21 184.053 222.06 183.683L222.59 183.463H226.14L227.38 183.643C227.29 183.923 227.25 184.223 227.25 184.523L227.24 184.543Z" fill="#A16E4A"/>
<path d="M155.88 255.863C156.97 255.863 158.6 258.223 158.6 258.223L125.52 287.423L87.63 287.473L89.35 283.963L124.51 283.513L155.55 255.493L155.88 255.863Z" fill="#8C96A0"/>
<path d="M104.66 275.143L103.92 275.423H87L90.16 270.393V270.313L101.37 270.053V270.393C102.97 271.313 104.01 273.333 104.66 275.143Z" fill="#D2DCE6"/>
<path d="M238.22 212.723C238.22 212.723 243.56 206.293 244.76 201.173C246.69 200.873 248.93 200.843 251.4 201.093L250.04 222.403L247.49 221.253L243.31 219.383L237.06 216.583L236.69 216.873C236.59 216.743 236.49 216.623 236.39 216.493L237.06 216.243C237.82 215.773 238.22 212.713 238.22 212.713V212.723Z" fill="#FAF5F5"/>
<path d="M208.96 183.083C208.96 183.083 208.75 182.313 208.47 181.173L209.09 181.023L222.29 159.333C222.29 159.333 229.85 176.943 245.49 182.663L238.89 183.493L238.72 183.563C238.31 182.413 237.21 181.583 235.92 181.583H230.24C228.89 181.583 227.76 182.463 227.38 183.683L226.14 183.503H222.59L222.06 183.723C221.6 182.633 220.53 181.873 219.27 181.873H213.23C211.55 181.873 210.19 183.233 210.19 184.903V186.593C210.07 186.003 209.96 185.423 209.86 184.833C209.75 184.223 209.65 183.613 209.57 183.013L208.97 183.103L208.96 183.083Z" fill="#A16E4A"/>
<path d="M137.06 225.213C134.57 229.913 132.54 234.623 132.54 239.313H98.81C98.81 229.793 107.9 218.563 111.46 209.063H139.19C137.28 207.033 136.2 205.013 135.72 202.993H146.03C146.03 210.403 140.98 217.813 137.06 225.213Z" fill="white"/>
<path d="M92.33 259.953H102.56C100.18 260.723 98.24 263.363 97.11 265.233C96.43 266.353 96.05 267.203 96.05 267.203H87C88.09 263.033 92.33 259.953 92.33 259.953Z" fill="#A16E4A"/>
<path d="M253.66 200.473L253.51 201.393C252.79 201.273 252.09 201.173 251.4 201.103C248.93 200.853 246.7 200.873 244.76 201.183L243.21 195.693C243.3 195.363 243.38 195.053 243.46 194.723C244.46 194.803 245.48 194.593 246.39 194.163C246.92 193.913 247.37 193.513 247.78 193.073C249.74 191.033 251 188.333 251.33 185.533H251.4C253.75 187.143 254.26 188.973 253.44 192.433C257.38 193.973 256.14 197.443 253.66 200.473Z" fill="#0A1E3C"/>
<path d="M128.79 179.913C128.79 180.073 128.79 180.233 128.78 180.383H120.89C120.88 180.233 120.88 180.083 120.88 179.913C120.88 174.073 122.95 171.683 122.95 171.683L122.92 171.473C123.52 171.353 124.13 171.293 124.74 171.293C125.42 171.293 126.1 171.373 126.74 171.513L126.7 171.683C126.7 171.683 128.79 174.073 128.79 179.913Z" fill="white"/>
<path d="M122.87 188.823C122.48 188.403 120.96 186.393 120.89 180.373H128.78C128.7 187.273 126.71 188.913 126.71 188.913L126.79 189.243C126.14 189.393 125.45 189.473 124.76 189.473C124.07 189.473 123.42 189.393 122.78 189.253L122.88 188.833L122.87 188.823Z" fill="white"/>
<path d="M110.79 269.833L124.29 269.513L153.93 242.653L154.51 243.293L157.84 244.173L155.87 245.953L124.37 274.443L114.59 274.853L113.86 274.953C112.75 272.223 110.79 270.393 110.79 270.393V269.833Z" fill="#D2DCE6"/>
<path d="M238.65 230.013C238.04 231.633 237.14 233.093 236.02 234.343C235.13 235.333 234.1 236.193 232.96 236.893C230.89 238.153 228.45 238.883 225.85 238.883C220.42 238.883 215.73 235.723 213.51 231.123C212.65 229.333 212.16 227.323 212.16 225.203C212.16 219.533 215.6 214.663 220.52 212.593C222.15 211.893 223.95 211.513 225.84 211.513C230.09 211.513 233.88 213.443 236.39 216.483C236.5 216.613 236.6 216.733 236.69 216.863C238.46 219.163 239.51 222.053 239.51 225.193C239.51 226.143 239.41 227.053 239.23 227.943C239.09 228.653 238.89 229.333 238.64 229.993L238.65 230.013Z" fill="#508CF0"/>
<path d="M157.84 248.353L154.94 250.983L123.95 279.023H105.55V278.523H114.6C114.6 277.243 114.3 276.033 113.87 274.973L114.6 274.873L124.38 274.463L155.88 245.973C158.26 245.973 157.85 248.363 157.85 248.363L157.84 248.353Z" fill="#8C96A0"/>
<path d="M133.55 240.863C138.93 237.323 144.74 232.953 148.83 229.783L148.91 229.893L124.65 251.733L89.97 252.653L86.99 252.733C86.99 252.733 115.45 249.553 123.79 246.343C126.36 245.343 129.85 243.303 133.54 240.853L133.55 240.863Z" fill="#FAF5F5"/>
<path d="M216 226.333C216 226.333 217.05 234.033 224.66 234.393M218.5 217.893C218.5 217.893 216.44 220.063 216.4 221.153" stroke="white" stroke-width="2" stroke-linecap="round" stroke-linejoin="round"/>
<path d="M247.49 221.263L247.39 221.483L242.75 230.603L242.21 231.723L238.65 230.013C238.9 229.353 239.1 228.663 239.24 227.963H239.25L243.31 219.393L247.49 221.263Z" fill="#FAB44B"/>
<path d="M260.39 251.163C260.62 251.623 262.63 255.353 269.34 259.343L247.63 259.423V257.293C253.82 257.293 259.95 251.393 259.95 251.393L260.4 251.163H260.39Z" fill="#FAB44B"/>
<path d="M250.04 222.413L251.4 201.103C252.08 201.183 252.79 201.273 253.51 201.393C270.47 204.133 296.19 219.003 308.84 245.893C313.51 262.643 298.26 267.723 298.26 267.723C298.26 267.723 291.8 269.623 283.35 267.383C277.93 265.953 274.16 262.203 269.35 259.333C262.64 255.343 260.63 251.613 260.4 251.153C260.39 251.123 260.38 251.113 260.38 251.113L257.2 238.883L242.22 231.723L242.76 230.593L247.4 221.473L247.5 221.253L250.05 222.403L250.04 222.413Z" fill="#FAB44B"/>
<path d="M247.63 259.423L217.89 259.513L212.7 231.383L213.5 231.143C215.72 235.733 220.41 238.903 225.84 238.903C228.45 238.903 230.88 238.173 232.95 236.913L234.47 238.983L234.27 239.123L231.84 242.633L231.88 242.843L231.01 243.043C231.01 243.043 229.52 244.053 229.89 245.653C230.5 248.223 233.79 247.443 233.79 247.443C233.79 248.123 234.56 248.803 235.68 249.403L235.47 249.773C236.05 250.443 240.74 255.873 245.38 257.043C246.12 257.243 246.87 257.313 247.61 257.313V259.443L247.63 259.423Z" fill="#FAB44B"/>
<path d="M212.7 231.373L217.89 259.503L193.87 259.593L198.1 231.453C199.1 224.733 201.74 218.393 205.75 213.033C207.86 210.213 210.34 207.653 213.18 205.463C214.91 204.123 216.05 203.463 216.54 203.213C216.67 203.423 216.8 203.623 216.95 203.833C217.47 207.413 218.7 210.213 220.38 212.253L220.52 212.613C215.6 214.683 212.16 219.553 212.16 225.223C212.16 227.343 212.65 229.353 213.51 231.143L212.71 231.383L212.7 231.373Z" fill="#FAB44B"/>
<path d="M98.81 211.673H94.78V216.463H98.81V211.673Z" fill="#FAB44B"/>
<path d="M151.3 162.853H148.32V166.383H151.3V162.853Z" fill="#FAB44B"/>
<path d="M185.91 238.153H182.13V242.633H185.91V238.153Z" fill="#FAB44B"/>
<path d="M162.31 190.843H157.76V195.403H162.31V190.843Z" fill="#FAB44B"/>
<path d="M155.88 197.443H150.34V202.233H155.88V197.443Z" fill="#FAB44B"/>
<path d="M180.05 245.963H175.49V250.513H180.05V245.963Z" fill="#FAB44B"/>
<path d="M208.57 194.083C205.63 196.903 202.67 200.283 205.45 203.023C202.35 205.053 201.59 210.403 205.74 213.023" stroke="#161616" stroke-width="2" stroke-linecap="round" stroke-linejoin="round"/>
<path d="M251.4 185.543C253.75 187.143 254.26 188.973 253.44 192.433C257.38 193.973 256.14 197.443 253.66 200.473" stroke="#161616" stroke-width="2" stroke-linecap="round" stroke-linejoin="round"/>
<path d="M273.82 227.763L281.26 245.273" stroke="#161616" stroke-width="2" stroke-linecap="round" stroke-linejoin="round"/>
<path d="M220.38 212.243C218.7 210.203 217.47 207.413 216.95 203.823C216.9 203.573 216.86 203.313 216.83 203.053C216.83 203.053 216.73 203.093 216.54 203.203C216.05 203.453 214.91 204.113 213.18 205.453C210.34 207.643 207.86 210.203 205.75 213.023C201.74 218.393 199.1 224.723 198.1 231.443L193.87 259.583L193.85 259.693" stroke="#161616" stroke-width="2" stroke-linecap="round" stroke-linejoin="round"/>
<path d="M308.84 245.893C296.19 219.003 270.46 204.133 253.51 201.393C252.79 201.273 252.09 201.173 251.4 201.103C248.93 200.853 246.7 200.873 244.76 201.183C243.57 206.303 238.22 212.733 238.22 212.733C238.22 212.733 237.82 215.793 237.06 216.263" stroke="#161616" stroke-width="2" stroke-linecap="round" stroke-linejoin="round"/>
<path d="M290.85 247.823L281.26 245.283L257.19 238.893L260.37 251.123C260.37 251.123 260.38 251.133 260.39 251.163C260.62 251.623 262.63 255.353 269.34 259.343C274.15 262.213 277.92 265.963 283.34 267.393C291.79 269.633 298.25 267.733 298.25 267.733C298.25 267.733 313.5 262.653 308.83 245.903" stroke="#161616" stroke-width="2" stroke-linecap="round" stroke-linejoin="round"/>
<path d="M210.61 235.433L213.77 240.143" stroke="#161616" stroke-width="2" stroke-linecap="round" stroke-linejoin="round"/>
<path d="M233.8 247.423C233.8 248.103 234.57 248.783 235.69 249.383C238.29 250.803 242.78 251.873 244.02 251.933L248.14 251.523" stroke="#161616" stroke-width="2" stroke-linecap="round" stroke-linejoin="round"/>
<path d="M235.43 249.683C235.43 249.683 235.45 249.703 235.48 249.753C236.06 250.423 240.75 255.853 245.39 257.023C246.13 257.223 246.88 257.293 247.62 257.293C253.82 257.293 259.95 251.393 259.95 251.393" stroke="#161616" stroke-width="2" stroke-linecap="round" stroke-linejoin="round"/>
<path d="M238.63 230.013H238.65L242.21 231.723V231.733L257.19 238.893" stroke="#161616" stroke-width="2" stroke-linecap="round" stroke-linejoin="round"/>
<path d="M234.28 239.113L231.85 242.623" stroke="#161616" stroke-width="2" stroke-linecap="round" stroke-linejoin="round"/>
<path d="M212.7 231.373L217.89 259.503L217.92 259.703" stroke="#161616" stroke-width="2" stroke-linecap="round" stroke-linejoin="round"/>
<path d="M247.39 245.533L233.8 247.423C233.8 247.423 230.51 248.203 229.9 245.633C229.53 244.033 231.02 243.023 231.02 243.023L231.89 242.823L232.5 242.693L236.2 241.883L240.45 240.933L244.76 239.973" stroke="#161616" stroke-width="2" stroke-linecap="round" stroke-linejoin="round"/>
<path d="M242.64 193.713L243.21 195.693L244.76 201.173" stroke="#161616" stroke-width="2" stroke-linecap="round" stroke-linejoin="round"/>
<path d="M245.52 183.763C245.64 183.533 245.77 183.333 245.93 183.143C246.39 182.583 247.02 182.173 247.72 181.893C248.2 181.693 248.74 181.603 249.26 181.643C249.8 181.683 250.31 181.883 250.7 182.273C251.38 182.983 251.45 184.063 251.37 185.053C251.36 185.213 251.34 185.383 251.32 185.533C250.98 188.333 249.72 191.033 247.77 193.073C247.36 193.503 246.91 193.913 246.38 194.163C245.47 194.593 244.45 194.803 243.45 194.723C243.37 195.053 243.29 195.363 243.2 195.693C241.91 200.443 239.87 205.263 235.72 207.803C232.96 209.493 229.79 209.983 226.55 209.933C223.49 209.883 220.62 208.193 218.56 205.923C217.96 205.273 217.42 204.563 216.94 203.823C216.79 203.613 216.66 203.413 216.53 203.203C215.51 201.573 214.69 199.803 213.96 198.023C213.37 196.613 212.81 195.203 212.29 193.773C211.83 192.533 211.41 191.273 211.05 190.003C210.71 188.873 210.42 187.733 210.18 186.573C210.06 185.983 209.95 185.403 209.85 184.813C209.74 184.203 209.64 183.593 209.56 182.993C209.49 182.513 209.43 182.043 209.38 181.573" stroke="#161616" stroke-width="2" stroke-linecap="round" stroke-linejoin="round"/>
<path d="M211.89 193.923C210.91 194.583 209.59 194.643 208.57 194.083C207.98 193.753 207.51 193.253 207.08 192.733C205.89 191.243 205.05 189.463 204.67 187.593C204.49 186.703 204.41 185.753 204.65 184.893C204.9 184.013 205.52 183.213 206.37 182.933C208.61 182.893 209.15 184.203 209.6 184.853" stroke="#161616" stroke-width="2" stroke-linecap="round" stroke-linejoin="round"/>
<path d="M208.96 183.083C208.96 183.083 208.75 182.313 208.47 181.173C207.79 178.513 206.65 173.853 206.63 172.503C206.62 170.583 206.53 165.953 211.15 160.873C216.33 155.183 225.98 155.343 225.98 155.343C225.98 155.343 237.93 154.933 244.93 161.113C251.94 167.293 249.87 177.463 249.33 181.023" stroke="#161616" stroke-width="2" stroke-linecap="round" stroke-linejoin="round"/>
<path d="M215.38 187.253L215.24 187.113" stroke="#161616" stroke-width="2" stroke-linecap="round" stroke-linejoin="round"/>
<path d="M231.06 187.393C231.02 187.343 230.97 187.293 230.93 187.253" stroke="#161616" stroke-width="2" stroke-linecap="round" stroke-linejoin="round"/>
<path d="M224.69 184.623C224.42 187.933 224.03 191.243 223.54 194.533C223.52 194.713 223.49 194.913 223.56 195.073C223.76 195.533 224.42 195.433 224.89 195.273L230.21 193.593" stroke="#161616" stroke-width="2" stroke-linecap="round" stroke-linejoin="round"/>
<path d="M159.63 259.703L193.87 259.593L217.89 259.503L247.63 259.423L269.34 259.343" stroke="#161616" stroke-width="2" stroke-linecap="round" stroke-linejoin="round"/>
<path d="M308.84 259.703H323.7" stroke="#161616" stroke-width="2" stroke-linecap="round" stroke-linejoin="round"/>
<path d="M232.94 236.893L232.95 236.903L234.47 238.973L236.02 241.063" stroke="#161616" stroke-width="2" stroke-linecap="round" stroke-linejoin="round"/>
<path d="M236.02 234.353L240.27 240.143" stroke="#161616" stroke-width="2" stroke-linecap="round" stroke-linejoin="round"/>
<path d="M236.69 216.883C238.46 219.183 239.51 222.073 239.51 225.213C239.51 226.163 239.41 227.073 239.23 227.963C239.09 228.673 238.89 229.353 238.64 230.013C238.03 231.633 237.13 233.093 236.01 234.343C235.12 235.333 234.09 236.193 232.95 236.893C230.88 238.153 228.44 238.883 225.84 238.883C220.41 238.883 215.72 235.723 213.5 231.123C212.64 229.333 212.15 227.323 212.15 225.203C212.15 219.533 215.59 214.663 220.51 212.593C222.14 211.893 223.94 211.513 225.83 211.513C230.08 211.513 233.87 213.443 236.38 216.483C236.49 216.613 236.59 216.733 236.68 216.863L236.69 216.883Z" stroke="#161616" stroke-width="2" stroke-linecap="round" stroke-linejoin="round"/>
<path d="M183.22 176.933L198.61 180.373" stroke="#161616" stroke-width="2" stroke-linecap="round" stroke-linejoin="round"/>
<path d="M185.52 168.203L200.3 173.683" stroke="#161616" stroke-width="2" stroke-linecap="round" stroke-linejoin="round"/>
<path d="M183.12 199.453L199.5 190.013" stroke="#161616" stroke-width="2" stroke-linecap="round" stroke-linejoin="round"/>
<path d="M190.81 186.393L198.5 185.543" stroke="#161616" stroke-width="2" stroke-linecap="round" stroke-linejoin="round"/>
<path d="M137 225.213H137.07L154.24 225.513C154.24 225.513 153.18 226.383 151.43 227.763C150.68 228.353 149.81 229.033 148.84 229.783C144.74 232.953 138.93 237.323 133.56 240.863C129.87 243.303 126.38 245.353 123.81 246.353C115.47 249.553 87.01 252.743 87.01 252.743C87.01 252.743 94.79 247.143 101.39 240.883" stroke="#161616" stroke-width="2" stroke-linecap="round" stroke-linejoin="round"/>
<path d="M89.98 252.743L87 255.863H89.89H123.95L153.5 230.053L155.88 227.973L151.42 227.763" stroke="#161616" stroke-width="2" stroke-linecap="round" stroke-linejoin="round"/>
<path d="M89.89 256.793L87 259.953H92.33H102.57H124.46L153.31 234.153L155.88 231.863L153.98 230.603" stroke="#161616" stroke-width="2" stroke-linecap="round" stroke-linejoin="round"/>
<path d="M98.39 265.413H123.95L152.22 239.913L157.43 235.203L153.31 234.153L153.29 234.143" stroke="#161616" stroke-width="2" stroke-linecap="round" stroke-linejoin="round"/>
<path d="M152.22 239.913H156.96L153.93 242.663L124.29 269.523L110.79 269.833L101.37 270.063L90.16 270.323L87 270.403L89.43 267.193" stroke="#161616" stroke-width="2" stroke-linecap="round" stroke-linejoin="round"/>
<path d="M103.92 275.433H89.53H87L90.16 270.403" stroke="#161616" stroke-width="2" stroke-linecap="round" stroke-linejoin="round"/>
<path d="M114.6 274.863L124.38 274.453L155.88 245.963L157.84 244.183L154.51 243.303" stroke="#161616" stroke-width="2" stroke-linecap="round" stroke-linejoin="round"/>
<path d="M89.53 275.433L87 279.013H123.95L154.94 250.973L157.84 248.343C157.84 248.343 158.25 245.953 155.87 245.953" stroke="#161616" stroke-width="2" stroke-linecap="round" stroke-linejoin="round"/>
<path d="M89.68 278.983C89.68 278.983 89.65 279.003 89.64 279.013C87.68 280.273 87 284.003 87 284.003L89.35 283.973L124.51 283.523L155.55 255.503L157.43 253.813C157.43 253.813 156.96 251.943 154.94 250.993" stroke="#161616" stroke-width="2" stroke-linecap="round" stroke-linejoin="round"/>
<path d="M89.35 283.963L87.63 287.473L125.52 287.423L158.6 258.223C158.6 258.223 156.97 255.863 155.88 255.863" stroke="#161616" stroke-width="2" stroke-linecap="round" stroke-linejoin="round"/>
<path d="M92.33 259.953C92.33 259.953 88.08 263.023 87 267.203H96.05C96.05 267.203 96.43 266.353 97.11 265.233C98.24 263.363 100.18 260.723 102.56 259.953" stroke="#161616" stroke-width="2" stroke-linecap="round" stroke-linejoin="round"/>
<path d="M110.8 270.403C110.8 270.403 112.77 272.243 113.87 274.963C114.29 276.023 114.6 277.233 114.6 278.513H105.55C105.55 278.513 105.3 276.953 104.66 275.143C104.01 273.343 102.97 271.323 101.38 270.393" stroke="#161616" stroke-width="2" stroke-linecap="round" stroke-linejoin="round"/>
<path d="M87 252.743L89.98 252.663L124.66 251.743L148.91 229.893" stroke="#161616" stroke-width="2" stroke-linecap="round" stroke-linejoin="round"/>
<path d="M180.06 289.553C181.8 282.403 189.62 271.983 203.5 265.073C215.05 265.223 226.59 265.363 238.14 265.523C225 272.673 218.09 283.293 217.43 290.293C204.97 290.053 192.51 289.813 180.06 289.563V289.553Z" stroke="#161616" stroke-width="2" stroke-linecap="round" stroke-linejoin="round"/>
<path d="M189.93 281.183C192.36 277.363 196.72 273.413 199.5 271.913C207.47 271.913 214.32 272.323 222.3 272.323C219.08 274.953 216.35 278.603 214.87 282.203C214.33 283.493 213.95 284.793 213.77 286.023C205.79 286.023 196.15 285.323 188.17 285.323C188.37 284.043 189.01 282.603 189.93 281.163V281.183Z" stroke="#161616" stroke-width="2" stroke-linecap="round" stroke-linejoin="round"/>
<path d="M213.84 281.773C210.06 280.043 204.5 276.613 204.5 276.613L189.93 281.183L189.82 281.213" stroke="#161616" stroke-width="2" stroke-linecap="round" stroke-linejoin="round"/>
<path d="M206.27 268.483H216.18" stroke="#161616" stroke-width="2" stroke-linecap="round" stroke-linejoin="round"/>
<path d="M135.48 202.993H146.04C146.04 210.403 140.99 217.813 137.07 225.213C134.58 229.913 132.55 234.623 132.55 239.313H98.81C98.81 229.793 107.9 218.563 111.46 209.063" stroke="#161616" stroke-width="2" stroke-linecap="round" stroke-linejoin="round"/>
<path d="M135.73 202.993C136.21 205.013 137.28 207.033 139.2 209.063H106.56C93.5 195.253 119.62 181.453 106.56 167.633H139.19C150.33 179.433 132.96 191.203 135.72 202.993H135.73Z" stroke="#161616" stroke-width="2" stroke-linecap="round" stroke-linejoin="round"/>
<path d="M222.05 183.703C222.2 184.073 222.29 184.473 222.29 184.883V187.893C222.29 189.573 220.93 190.933 219.26 190.933H213.22C212.36 190.933 211.59 190.583 211.05 190.013C210.51 189.463 210.18 188.723 210.18 187.893V184.883C210.18 183.213 211.54 181.853 213.22 181.853H219.26C220.52 181.853 221.6 182.613 222.05 183.703Z" stroke="#161616" stroke-width="2" stroke-linecap="round" stroke-linejoin="round"/>
<path d="M238.71 183.543C238.82 183.863 238.88 184.193 238.88 184.543V187.673C238.88 189.313 237.54 190.653 235.9 190.653H230.22C228.57 190.653 227.23 189.313 227.23 187.673V184.543C227.23 184.243 227.27 183.943 227.36 183.663C227.74 182.443 228.87 181.563 230.22 181.563H235.9C237.19 181.563 238.29 182.393 238.7 183.543H238.71Z" stroke="#161616" stroke-width="2" stroke-linecap="round" stroke-linejoin="round"/>
<path d="M238.88 183.483L245.48 182.653C229.84 176.933 222.28 159.323 222.28 159.323L209.08 181.013" stroke="#161616" stroke-width="2" stroke-linecap="round" stroke-linejoin="round"/>
<path d="M226.13 183.483H222.58" stroke="#161616" stroke-width="2" stroke-linecap="round" stroke-linejoin="round"/>
<path d="M251.41 200.923L251.4 201.103L250.04 222.413L247.49 221.263L243.31 219.393L237.06 216.593" stroke="#161616" stroke-width="2" stroke-linecap="round" stroke-linejoin="round"/>
<path d="M243.31 219.393L239.24 227.963" stroke="#161616" stroke-width="2" stroke-linecap="round" stroke-linejoin="round"/>
<path d="M247.39 221.473L242.75 230.603" stroke="#161616" stroke-width="2" stroke-linecap="round" stroke-linejoin="round"/>
<path d="M226.13 201.173H227.24" stroke="#161616" stroke-width="2" stroke-linecap="round" stroke-linejoin="round"/>
<path d="M133.84 180.373C133.84 184.693 130.83 188.313 126.78 189.233C126.13 189.383 125.44 189.463 124.75 189.463C124.06 189.463 123.41 189.383 122.77 189.243C118.7 188.343 115.66 184.713 115.66 180.373C115.66 176.033 118.79 172.313 122.93 171.463C123.53 171.343 124.14 171.283 124.75 171.283C125.43 171.283 126.11 171.363 126.75 171.503C130.81 172.413 133.84 176.043 133.84 180.373Z" stroke="#161616" stroke-width="2" stroke-linecap="round" stroke-linejoin="round"/>
<path d="M122.95 171.673C122.95 171.673 120.88 174.063 120.88 179.903C120.88 180.063 120.88 180.223 120.89 180.373C120.96 186.393 122.48 188.403 122.87 188.823C122.92 188.893 122.96 188.913 122.96 188.913" stroke="#161616" stroke-width="2" stroke-linecap="round" stroke-linejoin="round"/>
<path d="M126.7 171.673C126.7 171.673 128.79 174.063 128.79 179.903C128.79 180.063 128.79 180.223 128.78 180.373C128.7 187.273 126.71 188.913 126.71 188.913" stroke="#161616" stroke-width="2" stroke-linecap="round" stroke-linejoin="round"/>
<path d="M115.69 180.373H120.89H128.78H133.84" stroke="#161616" stroke-width="2" stroke-linecap="round" stroke-linejoin="round"/>
<path d="M108.02 200.473H122.19" stroke="#161616" stroke-width="2" stroke-linecap="round" stroke-linejoin="round"/>
<path d="M108.59 204.403H115.69" stroke="#161616" stroke-width="2" stroke-linecap="round" stroke-linejoin="round"/>
<path d="M104.99 234.463H119.16" stroke="#161616" stroke-width="2" stroke-linecap="round" stroke-linejoin="round"/>
<path d="M106.44 229.893H115.11" stroke="#161616" stroke-width="2" stroke-linecap="round" stroke-linejoin="round"/>
<path d="M115.11 212.383C115.11 212.383 113.57 218.543 108.84 223.413H131.61C131.61 223.413 136.56 215.803 137.11 212.383" stroke="#161616" stroke-width="2" stroke-linecap="round" stroke-linejoin="round"/>
<path d="M155.88 197.443H150.34V202.233H155.88V197.443Z" stroke="#161616" stroke-width="2" stroke-linecap="round" stroke-linejoin="round"/>
<path d="M98.81 211.673H94.78V216.463H98.81V211.673Z" stroke="#161616" stroke-width="2" stroke-linecap="round" stroke-linejoin="round"/>
<path d="M151.3 162.853H148.32V166.383H151.3V162.853Z" stroke="#161616" stroke-width="2" stroke-linecap="round" stroke-linejoin="round"/>
<path d="M185.91 238.153H182.13V242.633H185.91V238.153Z" stroke="#161616" stroke-width="2" stroke-linecap="round" stroke-linejoin="round"/>
<path d="M180.05 245.963H175.49V250.513H180.05V245.963Z" stroke="#161616" stroke-width="2" stroke-linecap="round" stroke-linejoin="round"/>
<path d="M162.31 190.843H157.76V195.403H162.31V190.843Z" stroke="#161616" stroke-width="2" stroke-linecap="round" stroke-linejoin="round"/>
</g>
<g clip-path="url(#clip1_796_97699)">
<g clip-path="url(#clip2_796_97699)">
<path d="M142.73 110C144.44 112.36 145.95 115.96 148.84 112.07L149.13 111.74C148.99 111.61 148.84 111.48 148.71 111.35L148.91 111.14C150.12 110.72 157.85 112.75 157.85 112.75C157.85 112.75 163.01 113.89 166.37 115.99C166.7 116.19 167.01 116.41 167.3 116.63C167.53 116.81 167.81 117.03 168.13 117.29C174.65 122.49 199.07 142.95 211.86 151.19L211.71 151.42C209.14 156.47 183.95 157.09 183.95 157.09L172.69 147.48C167.35 148.84 161.19 144.34 160.13 143.52L156.38 136.49C154.72 134.95 153.37 133.11 152.51 131.03C151.87 129.5 150.41 124.96 150.33 124.67C150.33 124.67 142.61 117.73 142.09 112.09C142.01 111.23 142.24 110.5 142.66 109.94L142.74 110H142.73Z" fill="#FADBC7"/>
<path d="M169.63 93.97L168.83 96.65C166.94 101.76 165.42 109.28 166.19 114.48L162.02 94.48L169.62 93.97H169.63Z" fill="#D2DCE6"/>
<path d="M170.65 86.01L170.86 82.12L171.32 82.14C172.9 83.12 173.86 84.99 173.53 87.01C172.36 94.2 169.52 108.83 168.13 117.29C167.81 117.03 167.53 116.81 167.3 116.63C167.01 116.41 166.7 116.19 166.37 115.99L166.47 115.83L166.2 114.56C166.2 114.56 166.2 114.51 166.2 114.48C165.43 109.28 166.95 101.76 168.84 96.65L169.64 93.97L162.04 94.48L161.43 91.53L166.14 91.21C168.82 91.03 170.85 88.7 170.67 86.01H170.65Z" fill="#8C96A0"/>
<path d="M161.18 65.84C161.53 66.84 162.42 67.55 163.46 67.34C165.36 66.94 167.23 66.41 169.06 65.76L171.71 65.9L170.86 82.12L170.65 86.01C170.83 88.7 168.8 91.03 166.12 91.21L161.41 91.53L159.61 82.89C159.51 81.19 158.04 79.9 156.33 80.01L153.88 80.18L152.88 80.46H152.87C152.72 79.85 152.54 79.24 152.33 78.63C150.95 74.58 148.66 71.09 145.78 68.32L146.91 68.21C147.68 67.67 148.41 67.07 149.06 66.46C149.39 66.14 149.81 65.92 150.26 65.9C151.41 65.87 151.62 66.98 151.26 67.7C151.12 67.97 150.93 68.19 150.71 68.39C150.48 68.62 150.6 69.02 150.93 69.04C153.95 69.23 156.81 67.25 159.53 65.72C160.03 65.44 160.77 65.22 161.1 65.69C161.13 65.74 161.16 65.79 161.18 65.84Z" fill="white"/>
<path d="M159.53 65.72C156.81 67.25 153.95 69.23 150.93 69.04C150.6 69.02 150.48 68.62 150.71 68.39C150.93 68.19 151.12 67.97 151.26 67.7C151.62 66.98 151.41 65.87 150.26 65.9C149.81 65.92 149.39 66.14 149.06 66.46C148.41 67.07 147.68 67.67 146.91 68.21L145.78 68.32C141.5 64.2 135.91 61.65 129.98 61.13L130.14 56.52L148.73 55.26L152.95 54.97L166.9 54.02C169.59 53.83 171.91 55.86 172.1 58.55L171.71 65.9L169.06 65.76C167.23 66.41 165.36 66.94 163.46 67.34C162.42 67.55 161.53 66.84 161.18 65.84C161.16 65.79 161.13 65.74 161.1 65.69C160.77 65.22 160.03 65.44 159.53 65.72Z" fill="white"/>
<path d="M148.72 15.51C151.71 15.3 154.22 17.73 154.11 20.73L152.92 54.54L152.95 54.97L148.73 55.26L149.84 19.41C149.89 17.89 149.29 16.52 148.3 15.53L148.72 15.51Z" fill="#D2DCE6"/>
<path d="M149.13 111.74L148.84 112.07C145.95 115.96 144.44 112.36 142.73 110L142.65 109.94C142.75 109.81 142.85 109.69 142.97 109.58C144.14 108.46 146.16 108.36 147.34 109.85C147.76 110.38 148.21 110.87 148.71 111.35C148.84 111.48 148.99 111.61 149.13 111.74Z" fill="#FADBC7"/>
<path d="M141.23 139.82C143.58 139.79 146.19 138.11 146.71 134.99L147 135.03L148.83 138.28L150.14 139.06C150.93 139.47 151.45 140.26 151.51 141.14C151.52 141.23 151.52 141.32 151.52 141.42C151.52 142.19 151.26 142.92 150.82 143.5C150.25 144.24 149.37 144.75 148.36 144.83C148.34 144.84 148.33 144.84 148.31 144.84C147.86 144.87 147.4 144.86 146.96 144.8C144.96 144.52 143.16 143.3 142.15 141.48C141.92 141.07 141.23 139.82 141.23 139.82Z" fill="#FADBC7"/>
<path d="M146.96 144.8C147.4 144.86 147.86 144.87 148.31 144.84C148.33 144.84 148.34 144.84 148.36 144.83C149.37 144.75 150.25 144.24 150.82 143.5L151.42 143.52C152.31 144.08 152.81 145.04 152.81 146.05C152.81 146.39 152.75 146.73 152.63 147.07C151.84 147.34 151.15 147.45 150.55 147.45C147.77 147.45 146.94 145.05 146.94 145.05L146.96 144.8Z" fill="#FADBC7"/>
<path d="M145.36 131.51C145.91 131.79 146.54 132.34 146.8 133.36C146.83 133.94 146.8 134.49 146.71 134.99C146.19 138.11 143.58 139.79 141.23 139.82C138.76 139.86 136.57 138.05 137.42 134.16C137.71 132.81 140.8 128.62 142.28 126.89C142.43 126.71 142.57 126.56 142.68 126.44L142.89 126.33L145.57 131.4L145.36 131.51Z" fill="#FADBC7"/>
<path d="M137.82 67.23C142.8 69.76 146.83 74.15 148.78 79.85C148.85 80.05 148.92 80.25 148.98 80.45L148.7 80.54L112.2 83.02L110.89 83.08C110.88 83 110.88 82.93 110.88 82.85C110.88 82.71 110.88 82.56 111.97 79.48L112.6 79.62L127.17 78.63C129.85 78.44 131.87 76.13 131.69 73.45L131.97 65.31L131.99 65.21C134.03 65.61 135.99 66.29 137.82 67.23Z" fill="#99B1FF"/>
<path d="M166.2 114.56L166.47 115.83L166.37 115.99C163.01 113.89 157.85 112.75 157.85 112.75C157.85 112.75 150.12 110.72 148.91 111.14L148.71 111.35C148.21 110.87 147.76 110.38 147.34 109.85C146.16 108.36 144.14 108.46 142.97 109.58L142.4 108.75L142.3 108.6C151.28 102.54 155.73 91.28 152.88 80.46L153.88 80.18L156.33 80.01C158.04 79.9 159.51 81.19 159.61 82.89L161.41 91.53L162.02 94.48L166.19 114.48C166.19 114.48 166.19 114.53 166.19 114.56H166.2Z" fill="white"/>
<path d="M132.99 127.63C133.07 127.08 133.29 126.55 133.61 126.08C135 124.08 137.99 118.89 138.51 118.13L138.56 118.11L142.89 126.33L142.68 126.44C142.57 126.56 142.43 126.71 142.28 126.89L142.17 126.79C139.41 129.8 134.76 132.47 133.31 129.58C133 128.97 132.91 128.29 132.99 127.63Z" fill="#FADBC7"/>
<path d="M136.14 111.67C138.37 110.91 140.43 109.87 142.3 108.6L142.4 108.75L142.97 109.58C142.85 109.69 142.75 109.81 142.65 109.94C142.23 110.5 142 111.23 142.08 112.09C142.6 117.73 150.32 124.66 150.32 124.66C150.4 124.96 151.86 129.5 152.5 131.03C153.36 133.11 154.71 134.95 156.37 136.49L160.12 143.52L162.14 147.3C160.17 149.21 157.55 150.32 154.8 150.42L154.34 150.44L152.82 147.45H150.54C151.14 147.45 151.83 147.34 152.62 147.07C152.74 146.73 152.8 146.39 152.8 146.05C152.8 145.04 152.3 144.08 151.41 143.52L150.81 143.5C151.25 142.92 151.51 142.19 151.51 141.42C151.51 141.32 151.51 141.23 151.5 141.14C151.44 140.26 150.92 139.47 150.13 139.06L148.82 138.28L146.99 135.03L146.7 134.99C146.79 134.49 146.82 133.94 146.79 133.36C146.53 132.34 145.9 131.79 145.35 131.51L145.56 131.4L142.88 126.33L138.55 118.11L135.34 112.03L135.31 111.93C135.59 111.85 135.86 111.76 136.13 111.67H136.14Z" fill="#8C96A0"/>
<path d="M138.56 118.11L138.51 118.13C137.99 118.89 135 124.08 133.61 126.08C133.29 126.55 133.07 127.08 132.99 127.63L89.41 130.61C87.71 130.72 86.25 129.44 86.13 127.75L77.46 82.69L77.29 81.78C77.18 80.09 78.46 78.62 80.15 78.5L101.97 77.01L103.78 76.89C101.36 82.58 100.95 89.16 103.11 95.47C107.67 108.79 121.96 116.02 135.32 111.93L135.35 112.03L138.56 118.11Z" fill="white"/>
<path d="M136.89 34.92C136.95 36.8 136.64 38.61 136.04 40.28L133.04 40.05C133.27 39.21 133.46 38.35 133.58 37.47C133.88 35.31 133.8 33.18 133.4 31.13L136.35 31.35C136.67 32.5 136.86 33.7 136.89 34.92Z" fill="#FAF5F5"/>
<path d="M132.36 24.79C133.8 26.14 134.93 27.75 135.7 29.52L132.93 29.32C132.16 26.8 130.87 24.48 129.13 22.51C130.29 23.11 131.38 23.87 132.36 24.79Z" fill="#FAF5F5"/>
<path d="M131.55 31C132 33 132.12 35.1 131.83 37.23C131.7 38.14 131.5 39.04 131.23 39.91L123.69 39.33L124.36 30.48L131.55 31Z" fill="#FAF5F5"/>
<path d="M129.21 46.96C130.59 45.35 131.7 43.51 132.47 41.51L135.3 41.72C134.04 44.2 132.08 46.24 129.7 47.63C129.56 47.39 129.4 47.17 129.21 46.96Z" fill="#FAF5F5"/>
<path d="M130.32 49.35C130.34 49.49 130.36 49.63 130.37 49.77L130.14 56.52L129.98 61.13C126.47 60.82 122.84 61.23 119.3 62.44C115.86 63.62 112.83 65.45 110.29 67.74L110.15 67.58L71.73 69.96L72.28 53.74C72.1 51.06 74.12 48.74 76.79 48.56L92.94 47.46L96.99 47.18L113.04 46.09L117.01 45.82L123.25 45.39L125.19 45.26C126.14 45.2 127.04 45.41 127.82 45.83C127.81 45.86 127.78 45.88 127.76 45.91C128.29 46.24 128.74 46.66 129.07 47.13C129.12 47.07 129.17 47.02 129.21 46.96C129.4 47.17 129.56 47.39 129.7 47.63C129.61 47.7 129.52 47.75 129.43 47.8C129.63 48.27 129.72 48.78 129.68 49.31V49.69C129.89 49.58 130.11 49.46 130.32 49.35ZM124.13 50.4C124.22 49.68 123.63 49.05 122.9 49.1L115.06 49.64C114.51 49.68 114.06 50.1 113.99 50.66L113.93 53.73C113.85 54.45 114.44 55.07 115.16 55.02L122.98 54.48C123.53 54.45 123.98 54.02 124.05 53.47L124.13 50.4Z" fill="white"/>
<path d="M129.68 49.31C129.72 48.78 129.63 48.27 129.43 47.8C129.52 47.75 129.61 47.7 129.7 47.63C130.01 48.14 130.22 48.72 130.32 49.35C130.11 49.46 129.89 49.58 129.67 49.69V49.31H129.68Z" fill="black"/>
<path d="M127.82 45.83C128.35 46.11 128.83 46.5 129.21 46.96C129.17 47.02 129.12 47.07 129.07 47.13C128.74 46.66 128.29 46.24 127.76 45.91C127.78 45.88 127.81 45.86 127.82 45.83Z" fill="black"/>
<path d="M103.78 76.89C104.24 75.81 104.77 74.76 105.37 73.75C106.69 71.52 108.35 69.49 110.29 67.74C112.83 65.45 115.86 63.62 119.3 62.44C122.84 61.23 126.47 60.82 129.98 61.13C135.91 61.65 141.5 64.2 145.78 68.32C148.66 71.09 150.95 74.58 152.33 78.63C152.54 79.24 152.72 79.85 152.87 80.46H152.88C155.73 91.28 151.28 102.54 142.3 108.6C140.43 109.87 138.37 110.91 136.14 111.67C135.87 111.76 135.6 111.85 135.32 111.93C121.96 116.02 107.67 108.79 103.11 95.47C100.95 89.16 101.36 82.58 103.78 76.89ZM106.66 94.25C109.76 103.33 118.14 109.09 127.2 109.31C129.75 109.37 132.36 108.99 134.92 108.11C138.41 106.92 141.4 104.95 143.78 102.46C145.97 100.17 147.65 97.44 148.7 94.47C150.25 90.1 150.46 85.21 148.98 80.45C148.92 80.25 148.85 80.05 148.78 79.85C146.83 74.15 142.8 69.76 137.82 67.23C135.99 66.29 134.03 65.61 131.99 65.21C128.29 64.48 124.35 64.68 120.52 65.99C118.51 66.68 116.67 67.63 115.01 68.78C111.46 71.25 108.75 74.67 107.15 78.57C105.15 83.39 104.84 88.93 106.66 94.25Z" fill="#8C96A0"/>
<path d="M125.19 45.26L123.25 45.39L123.23 45.12L123.56 40.82L130.61 41.36C129.91 43 128.97 44.51 127.82 45.83C127.04 45.41 126.14 45.2 125.19 45.26Z" fill="#FAF5F5"/>
<path d="M124.49 28.71L125.06 21.17H125.07C125.12 21.26 125.2 21.34 125.29 21.41C127.98 23.37 129.94 26.1 131.02 29.18L124.49 28.71Z" fill="#FAF5F5"/>
<path d="M122.9 49.1C123.63 49.05 124.22 49.68 124.13 50.4L124.05 53.47C123.98 54.02 123.53 54.45 122.98 54.48L115.16 55.02C114.44 55.07 113.85 54.45 113.93 53.73L113.99 50.66C114.06 50.1 114.51 49.68 115.06 49.64L122.9 49.1Z" fill="#D2DCE6"/>
<path d="M123.3 20.99L122.73 28.58L116.02 28.1C117.56 25.2 119.91 22.79 122.87 21.24C122.99 21.18 123.09 21.09 123.16 20.99H123.3Z" fill="#FAF5F5"/>
<path d="M122.59 30.35L121.92 39.2L114.19 38.61C114.07 37.73 114.01 36.83 114.02 35.93C114.05 33.79 114.48 31.72 115.23 29.82L122.59 30.35Z" fill="#FAF5F5"/>
<path d="M121.44 45.24L123.23 45.12L123.25 45.39L117.01 45.82L116.99 45.54C115.87 43.91 115.04 42.08 114.55 40.13L121.79 40.69L121.44 45.24Z" fill="#FAF5F5"/>
<path d="M119.4 21.39C117.14 23.13 115.34 25.39 114.11 27.96L110.7 27.71C112.66 24.6 115.75 22.28 119.4 21.39Z" fill="#FAF5F5"/>
<path d="M117.01 45.82L113.04 46.09L113.02 45.81L112.99 45.78C111.19 44.1 109.89 42.02 109.15 39.72L112.69 39.99C113.13 42.01 113.91 43.94 114.97 45.68L116.99 45.54L117.01 45.82Z" fill="#FAF5F5"/>
<path d="M110.71 45.97L113.02 45.81L113.04 46.09L96.99 47.18L97.96 17.17L144.24 14.01C145.82 13.9 147.27 14.5 148.3 15.53C149.33 16.56 149.89 17.89 149.84 19.41L148.73 55.26L130.14 56.52L130.37 49.77C130.37 49.63 130.34 49.49 130.32 49.35C133.49 47.57 136.01 44.75 137.41 41.36C137.45 41.3 137.47 41.24 137.49 41.17C138.31 39.14 138.73 36.92 138.67 34.6C138.54 30.22 136.73 26.18 133.57 23.22C130.48 20.31 126.44 18.79 122.21 18.94C116.22 19.15 111.09 22.69 108.49 27.74C108.46 27.78 108.44 27.83 108.42 27.87C107.24 30.22 106.61 32.89 106.69 35.7C106.8 39.55 108.21 43.14 110.71 45.97Z" fill="#8C96A0"/>
<path d="M112.39 38.47L108.7 38.18C108.56 37.45 108.48 36.69 108.46 35.93C108.39 33.61 108.87 31.4 109.78 29.42L113.38 29.68C112.67 31.64 112.28 33.74 112.25 35.9C112.23 36.77 112.29 37.62 112.39 38.47Z" fill="#FAF5F5"/>
<path d="M111.56 89.73C111.58 90.1 112.09 98.62 121.25 101.87C121.93 102.11 122.29 102.86 122.05 103.54C121.87 104.05 121.41 104.38 120.9 104.42C120.73 104.43 120.55 104.41 120.37 104.34C109.5 100.49 108.96 90.27 108.94 89.84C108.91 89.11 109.44 88.5 110.2 88.47C110.92 88.44 111.53 89 111.56 89.73Z" fill="#FAF5F5"/>
<path d="M108.44 84.43C107.94 82.45 108.52 80.5 109.22 79.05C109.89 77.67 110.67 76.75 110.73 76.67C111.2 76.12 112.03 76.05 112.58 76.52C113.13 76.99 113.2 77.82 112.73 78.37C112.72 78.37 112.37 78.81 111.97 79.48C110.88 82.56 110.88 82.71 110.88 82.85C110.88 82.93 110.88 83 110.89 83.08C110.9 83.32 110.93 83.55 110.99 83.78C111.17 84.49 110.74 85.2 110.04 85.38C109.94 85.41 109.84 85.42 109.74 85.42C109.15 85.44 108.6 85.04 108.44 84.43Z" fill="#FAF5F5"/>
<path d="M127.17 78.63L112.6 79.62L111.97 79.48C112.37 78.81 112.72 78.38 112.73 78.37C113.2 77.82 113.13 76.99 112.58 76.52C112.03 76.05 111.2 76.12 110.73 76.67C110.67 76.75 109.89 77.67 109.22 79.05L107.15 78.57C108.75 74.67 111.46 71.25 115.01 68.78C116.67 67.63 118.51 66.68 120.52 65.99C124.35 64.68 128.29 64.48 131.99 65.21L131.97 65.31L131.69 73.45C131.87 76.13 129.85 78.44 127.17 78.63Z" fill="#99B1FF"/>
<path d="M110.15 67.58L110.29 67.74C108.35 69.49 106.69 71.52 105.37 73.75L105.16 73.63L71.52 75.93L71.73 69.96L110.15 67.58Z" fill="#001423"/>
<path d="M133.04 40.05L136.04 40.28C136.64 38.61 136.95 36.8 136.89 34.92C136.86 33.7 136.67 32.5 136.35 31.35L133.4 31.13C133.8 33.18 133.88 35.31 133.58 37.47C133.46 38.35 133.27 39.21 133.04 40.05ZM135.7 29.52C134.93 27.75 133.8 26.14 132.36 24.79C131.38 23.87 130.29 23.11 129.13 22.51C130.87 24.48 132.16 26.8 132.93 29.32L135.7 29.52ZM125.06 21.17L124.49 28.71L131.02 29.18C129.94 26.1 127.98 23.37 125.29 21.41C125.2 21.34 125.12 21.26 125.07 21.17H125.06ZM108.7 38.18L112.39 38.47C112.29 37.62 112.23 36.77 112.25 35.9C112.28 33.74 112.67 31.64 113.38 29.68L109.78 29.42C108.87 31.4 108.39 33.61 108.46 35.93C108.48 36.69 108.56 37.45 108.7 38.18ZM131.83 37.23C132.12 35.1 132 33 131.55 31L124.36 30.48L123.69 39.33L131.23 39.91C131.5 39.04 131.7 38.14 131.83 37.23ZM114.19 38.61L121.92 39.2L122.59 30.35L115.23 29.82C114.48 31.72 114.05 33.79 114.02 35.93C114.01 36.83 114.07 37.73 114.19 38.61ZM122.73 28.58L123.3 20.99H123.16C123.09 21.09 122.99 21.18 122.87 21.24C119.91 22.79 117.56 25.2 116.02 28.1L122.73 28.58ZM114.11 27.96C115.34 25.39 117.14 23.13 119.4 21.39C115.75 22.28 112.66 24.6 110.7 27.71L114.11 27.96ZM137.49 41.17C137.47 41.24 137.45 41.3 137.41 41.36C136.01 44.75 133.49 47.57 130.32 49.35C130.22 48.72 130.01 48.14 129.7 47.63C132.08 46.24 134.04 44.2 135.3 41.72L132.47 41.51C131.7 43.51 130.59 45.35 129.21 46.96C128.83 46.5 128.35 46.11 127.82 45.83C128.97 44.51 129.91 43 130.61 41.36L123.56 40.82L123.23 45.12L121.44 45.24L121.79 40.69L114.55 40.13C115.04 42.08 115.87 43.91 116.99 45.54L114.97 45.68C113.91 43.94 113.13 42.01 112.69 39.99L109.15 39.72C109.89 42.02 111.19 44.1 112.99 45.78L113.02 45.81L110.71 45.97C108.21 43.14 106.8 39.55 106.69 35.7C106.61 32.89 107.24 30.22 108.42 27.87C108.44 27.83 108.46 27.78 108.49 27.74C111.09 22.69 116.22 19.15 122.21 18.94C126.44 18.79 130.48 20.31 133.57 23.22C136.73 26.18 138.54 30.22 138.67 34.6C138.73 36.92 138.31 39.14 137.49 41.17Z" fill="black"/>
<path d="M108.94 89.84C108.96 90.27 109.5 100.49 120.37 104.34C120.55 104.41 120.73 104.43 120.9 104.42C121.41 104.38 121.87 104.05 122.05 103.54C122.29 102.86 121.93 102.11 121.25 101.87C112.09 98.62 111.58 90.1 111.56 89.73C111.53 89 110.92 88.44 110.2 88.47C109.44 88.5 108.91 89.11 108.94 89.84ZM148.7 80.54L148.98 80.45C150.46 85.21 150.25 90.1 148.7 94.47C147.65 97.44 145.97 100.17 143.78 102.46C141.4 104.95 138.41 106.92 134.92 108.11C132.36 108.99 129.75 109.37 127.2 109.31C118.14 109.09 109.76 103.33 106.66 94.25C104.84 88.93 105.15 83.39 107.15 78.57L109.22 79.05C108.52 80.5 107.94 82.45 108.44 84.43C108.6 85.04 109.15 85.44 109.74 85.42C109.84 85.42 109.94 85.41 110.04 85.38C110.74 85.2 111.17 84.49 110.99 83.78C110.93 83.55 110.9 83.32 110.89 83.08L112.2 83.02L148.7 80.54Z" fill="#99B1FF"/>
<path d="M97.96 17.17L96.99 47.18L92.94 47.46L93.87 17.45L97.96 17.17Z" fill="#001423"/>
<path d="M76.61 82.85C73.93 83.04 71.62 81.02 71.44 78.34L71.52 75.93L105.16 73.63L105.37 73.75C104.77 74.76 104.24 75.81 103.78 76.89L101.97 77.01L80.15 78.5C78.46 78.62 77.18 80.09 77.29 81.78L77.46 82.69L76.61 82.85Z" fill="white"/>
<path d="M168.13 117.29C169.52 108.83 172.36 94.2 173.53 87.01C173.86 84.99 172.9 83.12 171.32 82.14" stroke="#161616" stroke-width="2" stroke-linecap="round" stroke-linejoin="round"/>
<path d="M130.14 56.52L148.73 55.26L152.95 54.97L166.9 54.02C169.59 53.83 171.91 55.86 172.1 58.55L171.71 65.9L170.86 82.12L170.65 86.01C170.83 88.7 168.8 91.03 166.12 91.21L161.41 91.53" stroke="#161616" stroke-width="2" stroke-linecap="round" stroke-linejoin="round"/>
<path d="M146.91 68.21C147.68 67.67 148.41 67.07 149.06 66.46C149.39 66.14 149.81 65.92 150.26 65.9C151.41 65.87 151.62 66.98 151.26 67.7C151.12 67.97 150.93 68.19 150.71 68.39C150.48 68.62 150.6 69.02 150.93 69.04C153.95 69.23 156.81 67.25 159.53 65.72C160.03 65.44 160.77 65.22 161.1 65.69C161.13 65.74 161.16 65.79 161.18 65.84C161.53 66.84 162.42 67.55 163.46 67.34C165.36 66.94 167.23 66.41 169.06 65.76" stroke="#161616" stroke-width="2" stroke-linecap="round" stroke-linejoin="round"/>
<path d="M150.92 74.62C153.13 74.14 154.37 73.86 156.58 73.37C156.96 73.29 157.34 73.2 157.73 73.12C159.03 72.83 160.34 72.54 161.65 72.27C163.12 71.98 164.59 71.72 166.05 71.47" stroke="#161616" stroke-width="2" stroke-linecap="round" stroke-linejoin="round"/>
<path d="M166.2 114.56L166.47 115.83" stroke="#161616" stroke-width="2" stroke-linecap="round" stroke-linejoin="round"/>
<path d="M153.88 80.18L156.33 80.01C158.04 79.9 159.51 81.19 159.61 82.89L161.41 91.53L162.02 94.48L166.19 114.48" stroke="#161616" stroke-width="2" stroke-linecap="round" stroke-linejoin="round"/>
<path d="M112.2 83.02L148.7 80.54" stroke="#161616" stroke-width="2" stroke-linecap="round" stroke-linejoin="round"/>
<path d="M133.01 127.63H132.99L89.41 130.61C87.71 130.72 86.25 129.44 86.13 127.75L77.46 82.69L77.29 81.78C77.18 80.09 78.46 78.62 80.15 78.5L101.97 77.01L103.78 76.89H103.81" stroke="#161616" stroke-width="2" stroke-linecap="round" stroke-linejoin="round"/>
<path d="M150.33 124.67C150.41 124.96 151.87 129.5 152.51 131.03C153.37 133.11 154.72 134.95 156.38 136.49C158.44 138.41 160.98 139.85 163.66 140.67L172.16 143.24" stroke="#161616" stroke-width="2" stroke-linecap="round" stroke-linejoin="round"/>
<path d="M169.48 123.81C161.06 118.33 153.66 115.82 149.13 111.74C148.99 111.61 148.84 111.48 148.71 111.35C148.21 110.87 147.76 110.38 147.34 109.85C146.16 108.36 144.14 108.46 142.97 109.58C142.85 109.69 142.75 109.81 142.65 109.94C142.23 110.5 142 111.23 142.08 112.09C142.6 117.73 150.32 124.66 150.32 124.66" stroke="#161616" stroke-width="2" stroke-linecap="round" stroke-linejoin="round"/>
<path d="M213.04 151.94C212.66 151.7 212.27 151.46 211.86 151.19C199.07 142.95 174.65 122.49 168.13 117.29C167.81 117.03 167.53 116.81 167.3 116.63C167.01 116.41 166.7 116.19 166.37 115.99C163.01 113.89 157.85 112.75 157.85 112.75C157.85 112.75 150.12 110.72 148.91 111.14" stroke="#161616" stroke-width="2" stroke-linecap="round" stroke-linejoin="round"/>
<path d="M142.39 126.54C142.32 126.62 142.24 126.71 142.17 126.79C139.41 129.8 134.76 132.47 133.31 129.58C133 128.97 132.91 128.29 132.99 127.63C133.07 127.08 133.29 126.55 133.61 126.08C135 124.08 137.99 118.89 138.51 118.13" stroke="#161616" stroke-width="2" stroke-linecap="round" stroke-linejoin="round"/>
<path d="M142.68 126.44C142.57 126.56 142.43 126.71 142.28 126.89C140.8 128.62 137.71 132.81 137.42 134.16C136.57 138.05 138.76 139.86 141.23 139.82C143.58 139.79 146.19 138.11 146.71 134.99C146.8 134.49 146.83 133.94 146.8 133.36" stroke="#161616" stroke-width="2" stroke-linecap="round" stroke-linejoin="round"/>
<path d="M144.31 131.19C144.31 131.19 144.8 131.22 145.36 131.51C145.91 131.79 146.54 132.34 146.8 133.36" stroke="#161616" stroke-width="2" stroke-linecap="round" stroke-linejoin="round"/>
<path d="M152.83 147.45L154.35 150.44" stroke="#161616" stroke-width="2" stroke-linecap="round" stroke-linejoin="round"/>
<path d="M135.35 112.03L138.56 118.11L142.89 126.33L145.57 131.4L145.62 131.5" stroke="#161616" stroke-width="2" stroke-linecap="round" stroke-linejoin="round"/>
<path d="M142.4 108.75L142.97 109.58" stroke="#161616" stroke-width="2" stroke-linecap="round" stroke-linejoin="round"/>
<path d="M141.23 139.82C141.23 139.82 141.92 141.07 142.15 141.48C143.16 143.3 144.96 144.52 146.96 144.8C147.4 144.86 147.86 144.87 148.31 144.84C148.33 144.84 148.34 144.84 148.36 144.83C149.37 144.75 150.25 144.24 150.82 143.5C151.26 142.92 151.52 142.19 151.52 141.42C151.52 141.32 151.52 141.23 151.51 141.14C151.45 140.26 150.93 139.47 150.14 139.06L148.83 138.28L146.43 136.86" stroke="#161616" stroke-width="2" stroke-linecap="round" stroke-linejoin="round"/>
<path d="M156.38 136.49L160.13 143.52L162.15 147.3" stroke="#161616" stroke-width="2" stroke-linecap="round" stroke-linejoin="round"/>
<path d="M142.73 110C144.44 112.36 145.95 115.96 148.84 112.07" stroke="#161616" stroke-width="2" stroke-linecap="round" stroke-linejoin="round"/>
<path d="M159.97 143.39C159.97 143.39 160.03 143.43 160.13 143.52C161.19 144.34 167.35 148.84 172.69 147.48L183.95 157.09" stroke="#161616" stroke-width="2" stroke-linecap="round" stroke-linejoin="round"/>
<path d="M145.78 68.32C148.66 71.09 150.95 74.58 152.33 78.63C152.54 79.24 152.72 79.85 152.87 80.46H152.88C155.73 91.28 151.28 102.54 142.3 108.6C140.43 109.87 138.37 110.91 136.14 111.67C135.87 111.76 135.6 111.85 135.32 111.93C121.96 116.02 107.67 108.79 103.11 95.47C100.95 89.16 101.36 82.58 103.78 76.89C104.24 75.81 104.77 74.76 105.37 73.75C106.69 71.52 108.35 69.49 110.29 67.74C112.83 65.45 115.86 63.62 119.3 62.44C122.84 61.23 126.47 60.82 129.98 61.13C135.91 61.65 141.5 64.2 145.78 68.32Z" stroke="#161616" stroke-width="2" stroke-linecap="round" stroke-linejoin="round"/>
<path d="M147 135.03L148.83 138.28" stroke="#161616" stroke-width="2" stroke-linecap="round" stroke-linejoin="round"/>
<path d="M146.94 145.05C146.94 145.05 147.77 147.45 150.55 147.45C151.15 147.45 151.84 147.34 152.63 147.07C152.75 146.73 152.81 146.39 152.81 146.05C152.81 145.04 152.31 144.08 151.42 143.52" stroke="#161616" stroke-width="2" stroke-linecap="round" stroke-linejoin="round"/>
<path d="M153.9 125.71C152.1 125.8 150.48 124.77 150.33 124.67" stroke="#161616" stroke-width="2" stroke-linecap="round" stroke-linejoin="round"/>
<path d="M148.7 94.47C150.25 90.1 150.46 85.21 148.98 80.45C148.92 80.25 148.85 80.05 148.78 79.85C146.83 74.15 142.8 69.76 137.82 67.23C135.99 66.29 134.03 65.61 131.99 65.21C128.29 64.48 124.35 64.68 120.52 65.99C118.51 66.68 116.67 67.63 115.01 68.78C111.46 71.25 108.75 74.67 107.15 78.57C105.15 83.39 104.84 88.93 106.66 94.25C109.76 103.33 118.14 109.09 127.2 109.31C129.75 109.37 132.36 108.99 134.92 108.11C138.41 106.92 141.4 104.95 143.78 102.46C145.97 100.17 147.65 97.44 148.7 94.47Z" stroke="#161616" stroke-width="2" stroke-linecap="round" stroke-linejoin="round"/>
<path d="M131.97 65.31L131.69 73.45C131.87 76.13 129.85 78.44 127.17 78.63L112.6 79.62" stroke="#161616" stroke-width="2" stroke-linecap="round" stroke-linejoin="round"/>
<path d="M71.72 69.96H71.73L110.15 67.58" stroke="#161616" stroke-width="2" stroke-linecap="round" stroke-linejoin="round"/>
<path d="M105.16 73.63L71.52 75.93" stroke="#161616" stroke-width="2" stroke-linecap="round" stroke-linejoin="round"/>
<path d="M115.06 49.64L122.9 49.1C123.63 49.05 124.22 49.68 124.13 50.4L124.05 53.47C123.98 54.02 123.53 54.45 122.98 54.48L115.16 55.02C114.44 55.07 113.85 54.45 113.93 53.73L113.99 50.66C114.06 50.1 114.51 49.68 115.06 49.64Z" stroke="#161616" stroke-width="2" stroke-linecap="round" stroke-linejoin="round"/>
<path d="M162.03 94.48L169.63 93.97L168.83 96.65C166.94 101.76 165.42 109.28 166.19 114.48C166.19 114.51 166.19 114.53 166.19 114.56" stroke="#161616" stroke-width="2" stroke-linecap="round" stroke-linejoin="round"/>
<path d="M92.94 47.46L93.87 17.45L97.96 17.17L144.24 14.01C145.82 13.9 147.27 14.5 148.3 15.53C149.33 16.56 149.89 17.89 149.84 19.41L148.73 55.26" stroke="#161616" stroke-width="2" stroke-linecap="round" stroke-linejoin="round"/>
<path d="M97.96 17.17L96.99 47.18" stroke="#161616" stroke-width="2" stroke-linecap="round" stroke-linejoin="round"/>
<path d="M53.24 52.87L66.21 54.04" stroke="#161616" stroke-width="2" stroke-linecap="round" stroke-linejoin="round"/>
<path d="M60.53 28.29L70.51 43.18" stroke="#161616" stroke-width="2" stroke-linecap="round" stroke-linejoin="round"/>
<path d="M83.33 31.56L84.02 40.07" stroke="#161616" stroke-width="2" stroke-linecap="round" stroke-linejoin="round"/>
<path d="M51 39.86L65.93 46.77" stroke="#161616" stroke-width="2" stroke-linecap="round" stroke-linejoin="round"/>
<path d="M74.21 34.96L77.09 40.87" stroke="#161616" stroke-width="2" stroke-linecap="round" stroke-linejoin="round"/>
<path d="M148.72 15.51C151.71 15.3 154.22 17.73 154.11 20.73L152.92 54.54" stroke="#161616" stroke-width="2" stroke-linecap="round" stroke-linejoin="round"/>
<path d="M76.51 63.8C82.27 63.1 87.95 61.68 93.37 59.58C93.13 60.87 92.88 62.17 92.64 63.46C95.55 62.68 98.46 61.91 101.37 61.13C102.11 60.93 102.88 60.73 103.62 60.92C104.36 61.11 105.02 61.83 104.86 62.57C108.75 61.24 112.78 60.33 116.86 59.88" stroke="#161616" stroke-width="2" stroke-linecap="round" stroke-linejoin="round"/>
<path d="M175.07 29.57L164.93 47.53" stroke="#161616" stroke-width="2" stroke-linecap="round" stroke-linejoin="round"/>
<path d="M185.79 44.63L171.06 50.43" stroke="#161616" stroke-width="2" stroke-linecap="round" stroke-linejoin="round"/>
<path d="M159.5 37.86L159.04 45.37" stroke="#161616" stroke-width="2" stroke-linecap="round" stroke-linejoin="round"/>
<path d="M127.82 45.83C127.04 45.41 126.14 45.2 125.19 45.26L123.25 45.39L117.01 45.82L113.04 46.09L96.99 47.18L92.94 47.46L76.79 48.56C74.12 48.74 72.1 51.06 72.28 53.74L71.73 69.96L71.52 75.93L71.44 78.34C71.62 81.02 73.93 83.04 76.61 82.85" stroke="#161616" stroke-width="2" stroke-linecap="round" stroke-linejoin="round"/>
<path d="M129.7 47.63C129.56 47.39 129.4 47.17 129.21 46.96" stroke="#161616" stroke-width="2" stroke-linecap="round" stroke-linejoin="round"/>
<path d="M129.98 61.13L130.14 56.52L130.37 49.77C130.37 49.63 130.34 49.49 130.32 49.35" stroke="#161616" stroke-width="2" stroke-linecap="round" stroke-linejoin="round"/>
</g>
</g>
<g clip-path="url(#clip3_796_97699)">
<g clip-path="url(#clip4_796_97699)">
<path d="M300.64 44.8573L300.11 45.2173V50.1973H298.11C297.7 51.0373 297.28 51.8573 295.11 53.6273L295.34 55.2973C293.24 55.6173 290.91 55.7473 288.57 55.7173C288.23 55.7173 287.89 55.7073 287.55 55.6973C287.44 55.6973 287.34 55.6973 287.23 55.6773C283.94 55.3873 281.15 53.6673 279.24 50.9973C278.26 49.6273 277.5 48.0173 277.04 46.2073C277 46.0573 276.96 45.9173 276.93 45.7673L275.64 38.6673H275.66V24.6373H276.76C277.98 27.9573 280.03 28.4573 280.3 24.6973C280.3 24.6973 282.02 30.9473 286.35 30.5473C287.19 30.4173 287.55 29.8473 287.61 29.1073C288.51 29.9973 289.54 30.6273 290.48 30.5573C292.77 30.3773 291.42 26.3573 290.89 24.9873C291.55 26.4973 293.84 31.2673 296.4 30.8873C297.4 30.7373 297.74 30.0073 297.75 29.0873L299.42 29.1873L301.03 38.3973L301.08 38.4273C301.46 37.7673 301.91 37.2973 302.38 36.9773C304.1 35.8473 306.04 36.9273 305.42 39.7473C302.88 47.6173 301.04 45.4773 300.64 44.8573Z" fill="#A16E4A"/>
<path d="M283.35 104.507H283.12V103.907H281.02L280.58 104.037C279.44 103.207 277.91 103.287 276.04 104.127C273.83 102.967 271.67 102.977 269.57 104.407C269.33 104.287 269.1 104.187 268.85 104.117V91.5773H277.59V85.2673H300.94C302.93 85.2673 304.14 86.9273 304.14 88.6973V99.8173L304.18 99.9673L293.08 102.967L296.73 97.2673C296.73 97.2673 297.73 95.6673 298.11 94.5073C298.5 92.7373 297.12 90.7473 295.57 92.3473L283.35 104.507Z" fill="#D2DCE6"/>
<path d="M304.7 111.487L304.06 112.187L300.6 115.967C299.56 116.897 298.42 117.727 296.84 118.017C292.8 117.797 288.11 117.017 283.18 116.027H283.12V104.507H283.35L295.57 92.3473C297.12 90.7473 298.5 92.7373 298.11 94.5073C297.73 95.6673 296.73 97.2673 296.73 97.2673L293.08 102.967L304.18 99.9673L304.14 99.8173V97.2673H304.36C305.14 96.4973 306.36 96.6573 306.58 97.8773L306.86 100.037L306.84 100.847L306.8 103.307H306.78C306.78 104.097 306.38 104.947 305.56 105.847L305.91 106.007C306.33 106.557 306.25 107.287 305.61 108.287L305.75 108.387C305.64 109.577 305.35 110.657 304.7 111.487Z" fill="#A16E4A"/>
<path d="M296.46 24.7073C296.52 24.8573 296.65 25.1473 296.83 25.5073C296.67 25.1373 296.53 24.8473 296.46 24.7073ZM290.73 24.5973C290.73 24.5973 290.77 24.6973 290.8 24.7673C290.77 24.6973 290.75 24.6373 290.73 24.5973ZM296.45 24.6973C296.45 24.6973 296.42 24.6373 296.42 24.6173C296.42 24.6373 296.43 24.6573 296.45 24.6973ZM275.66 24.6373V38.6673H275.64L275.57 38.2873L275.43 37.5073L275.32 37.5273C271.62 28.7873 272.22 22.0973 275.38 21.0473L276.32 20.6573C276.32 20.6573 277.48 15.8473 282.63 14.0773C290.31 11.6473 295.57 13.7473 291.86 16.2373C296.59 15.1573 304.42 16.3973 300.99 19.1673C303.35 20.9073 304.97 22.6473 302.54 23.3173L302.93 23.5873C303.85 28.1473 303.75 32.5773 302.26 36.8073L302.38 36.9773C301.91 37.2973 301.46 37.7673 301.08 38.4273L301.03 38.3973L299.42 29.1873L297.75 29.0873C297.75 30.0073 297.4 30.7373 296.4 30.8873C293.84 31.2673 291.55 26.4973 290.89 24.9873C291.42 26.3573 292.77 30.3773 290.48 30.5573C289.54 30.6273 288.51 29.9973 287.61 29.1073C287.8 27.1773 286.01 24.0873 285.45 24.3673C284.61 24.6973 285.86 27.3773 287.61 29.1073C287.55 29.8473 287.19 30.4173 286.35 30.5473C282.02 30.9473 280.3 24.6973 280.3 24.6973C280.03 28.4573 277.98 27.9573 276.76 24.6373H275.66Z" fill="#0A1E3C"/>
<path d="M275.21 38.3573L275.57 38.2873L275.64 38.6673L276.93 45.7673C276.96 45.9173 277 46.0573 277.04 46.2073L276.82 46.2673C276.71 46.6573 273.28 46.6573 272.39 40.2373C272.34 36.5373 274.72 37.7473 275.21 38.3573Z" fill="#A16E4A"/>
<path d="M217.5 53.2673C217.05 52.8373 216.5 52.8173 215.78 52.9573C215.02 53.0973 214.51 53.3473 214.14 53.9273C214.05 54.0673 214.08 54.2473 214.2 54.3273L214.3 54.3873C214.81 54.6973 215.43 54.8273 216.03 54.6873C216.05 54.6773 216.06 54.6773 216.07 54.6773C216.57 54.5473 217.02 54.2173 217.38 53.8173L217.51 53.6673C217.61 53.5473 217.61 53.3673 217.5 53.2673ZM216.77 51.1873C216.7 50.5273 216.12 50.0973 215.48 50.2173C214.84 50.3473 214.37 50.9773 214.44 51.6473C214.51 52.3073 215.08 52.7373 215.72 52.6173C216.37 52.4873 216.83 51.8473 216.77 51.1873ZM211.91 53.1373C211.9 53.0073 211.89 52.8673 211.89 52.7373C211.89 50.7673 213.32 48.9373 215.25 48.5673C217.31 48.1673 219.16 49.5573 219.38 51.6773C219.59 53.8073 218.1 55.8473 216.04 56.2473C213.98 56.6573 212.13 55.2573 211.91 53.1373Z" fill="#FAF5F5"/>
<path d="M304.14 97.2673V89.3473H304.15L306.97 91.1273H307.02L306.86 100.037L306.58 97.8773C306.36 96.6573 305.14 96.4973 304.36 97.2673H304.14Z" fill="#A16E4A"/>
<path d="M268.85 126.307V124.987L268.87 124.927C270.99 125.807 272.66 125.167 274.11 123.767C276.17 124.407 277.76 123.377 278.48 121.557C280.36 121.447 281.11 120.087 281.08 118.677H281.41C282.4 118.367 282.93 117.527 283.12 116.297V116.027H283.18C288.11 117.017 292.8 117.797 296.84 118.017C298.42 117.727 299.56 116.897 300.6 115.967L304.06 112.187L304.14 112.257V126.307C304.14 127.747 302.82 129.407 300.94 129.407H271.84C270.24 129.407 268.85 127.807 268.85 126.307Z" fill="#D2DCE6"/>
<path d="M260.322 126.67C260.152 126.04 260.042 125.61 260.052 125.56V125.53C260.962 125.46 261.842 125.13 262.702 124.57C264.592 125.82 266.492 125.8 268.402 124.23C268.672 124.38 268.932 124.51 269.192 124.62L269.172 124.68V126C269.172 127.5 270.562 129.1 272.162 129.1H301.262C303.142 129.1 304.462 127.44 304.462 126V111.95L304.382 111.88L305.022 111.18C305.672 110.35 305.962 109.27 306.072 108.08L305.932 107.98C306.572 106.98 306.652 106.25 306.232 105.7L305.882 105.54C306.702 104.64 307.102 103.79 307.102 103H307.122L307.102 104.2C307.432 106.48 308.832 108.69 309.942 109.46H310.112C310.152 112.46 311.352 114.32 313.312 115.44C313.962 117.9 315.622 119.65 319.232 120.03C320.302 122.81 322.202 123.98 324.762 123.85C324.802 123.95 324.842 124.05 324.892 124.15L324.712 124.23C324.672 124.93 324.492 125.71 324.162 126.56C325.212 128.19 325.372 130.2 324.382 132.7C325.842 134.97 325.752 137.05 324.272 138.95C324.692 141.52 324.252 143.4 323.002 144.65C322.982 144.8 322.952 144.94 322.922 145.08L322.442 145H262.592L262.132 144.96C262.132 144.89 262.142 144.83 262.152 144.76C260.132 143.08 259.642 141.11 260.212 138.95C258.792 136.97 258.472 134.9 260.052 132.7C258.882 130.04 259.422 127.73 260.322 126.67Z" fill="#FAB4B4"/>
<path d="M290.48 56.9473C290.43 56.0073 288.38 56.0573 288.38 57.1673L288.43 58.6073C288.52 59.9373 290.37 60.0473 290.48 58.6073V56.9473ZM300.23 54.0373L300.11 53.7373V51.0273C303.78 51.3173 306.19 53.0773 304.81 57.9373C307.78 57.3473 310.23 58.4373 311.11 60.6473C314.35 60.2673 316.2 61.7573 316.87 64.2473C320.4 64.6273 322.33 65.8073 322.23 68.0073C324.15 68.7073 325.58 69.7873 326.1 71.5473C328.64 72.6973 330.36 74.2473 330.7 76.4673C332.97 77.4473 334.82 78.8873 335.23 81.8973C337.42 83.2173 338.73 85.0873 338.99 87.5873C340.88 89.1273 341.59 90.8873 341.33 92.8273C343.45 94.4373 344.2 96.4573 343.25 98.9873C345.03 101.287 345.44 103.437 344.04 105.387C345.75 107.747 346.13 109.767 344.36 111.767C344.69 114.557 344.59 117.087 342.7 118.567C343.26 120.767 342.77 122.827 339.55 124.487C338.33 127.527 334.54 129.557 331.58 127.697C328.75 128.437 325.79 127.177 324.57 124.457C324.52 124.357 324.48 124.257 324.44 124.157C321.88 124.287 319.98 123.117 318.91 120.337C315.3 119.957 313.64 118.207 312.99 115.747C311.03 114.627 309.83 112.767 309.79 109.767V92.4873H309.73L307.03 90.3773V91.1273H306.97L304.15 89.3473H304.14V86.3173C304.14 84.5473 302.93 82.8873 300.94 82.8873H271.84C270.18 82.8873 268.85 84.6573 268.85 86.3173V104.117C269.1 104.187 269.33 104.287 269.57 104.407C271.67 102.977 273.83 102.967 276.04 104.127C277.91 103.287 279.44 103.207 280.58 104.037C280.75 104.167 280.92 104.317 281.08 104.497V118.677C281.11 120.087 280.36 121.447 278.48 121.557C277.76 123.377 276.17 124.407 274.11 123.767C272.66 125.167 270.99 125.807 268.87 124.927C268.61 124.817 268.35 124.687 268.08 124.537C266.17 126.107 264.27 126.127 262.38 124.877C261.52 125.437 260.64 125.767 259.73 125.837C258.51 125.967 257.23 125.617 255.91 124.757C253.43 126.197 251.54 126.047 250.16 124.537C247.91 124.447 246.43 123.197 245.79 120.667C244.13 119.947 243.16 118.167 243.3 115.577C241.8 114.547 241.44 112.717 242.36 109.997C240.76 108.317 240.77 106.167 242.14 103.627C241.17 101.657 241.3 99.7773 242.63 97.9873C241.65 95.6473 242.35 93.6973 244.18 92.0173C243.47 89.3573 244.5 87.1073 247 85.2073C246.63 82.5073 247.97 80.5273 250.16 78.9073C250.33 75.5973 252.01 74.3473 254.03 73.5373C254.93 69.9473 256.53 68.6773 258.45 68.4473C259.56 65.5273 261.19 64.5773 263.1 64.6373C264.47 62.1973 266.24 60.4373 269.07 60.4273C270.6 58.2473 272.39 57.6673 274.38 57.7773C273.1 53.4873 275.31 51.9473 278.92 51.2873L279.14 51.2473L279.72 54.5673L279.69 54.7173C281.96 55.2473 284.57 55.5773 287.23 55.6773C287.34 55.6973 287.44 55.6973 287.55 55.6973C287.88 55.7273 288.22 55.7373 288.57 55.7173C290.91 55.7473 293.24 55.6173 295.34 55.2973C297.2 55.0173 298.87 54.6073 300.23 54.0373Z" fill="#FAB4B4"/>
<path d="M216.77 51.1873C216.83 51.8473 216.37 52.4873 215.72 52.6173C215.08 52.7373 214.51 52.3073 214.44 51.6473C214.37 50.9773 214.84 50.3473 215.48 50.2173C216.12 50.0973 216.7 50.5273 216.77 51.1873Z" fill="#0A1E3C"/>
<path d="M232.48 53.5773C232.48 54.5173 231.83 55.3173 230.92 55.5173L216.57 58.6573L216.04 56.2473C218.1 55.8473 219.59 53.8073 219.38 51.6773C219.16 49.5573 217.31 48.1673 215.25 48.5673L214.63 45.7273L230.08 42.3673C231.31 42.0973 232.48 43.0473 232.48 44.3073V48.8573L232.21 49.2673C232.32 49.3473 232.43 49.4173 232.55 49.4973L232.48 49.6073V53.5773Z" fill="#FAB4B4"/>
<path d="M209 48.5473C209 47.6073 209.65 46.8073 210.56 46.6073L214.63 45.7273L215.25 48.5673C213.32 48.9373 211.89 50.7673 211.89 52.7373H209V48.5473Z" fill="#FAB4B4"/>
<path d="M295.11 53.6273C297.28 51.8573 297.7 51.0373 298.11 50.1973H300.11V53.7373L300.23 54.0373C298.87 54.6073 297.2 55.0173 295.34 55.2973L295.11 53.6273Z" fill="#A16E4A"/>
<path d="M309.62 109.767C308.51 108.997 307.11 106.787 306.78 104.507L306.8 103.307L306.84 100.847C306.88 100.707 306.9 100.567 306.91 100.427L306.86 100.037L307.02 91.1273V90.3773L309.73 92.4873H309.79V109.767H309.62Z" fill="#0A1E3C"/>
<path d="M300.94 82.8873C302.93 82.8873 304.14 84.5473 304.14 86.3173V88.6973C304.14 86.9273 302.93 85.2673 300.94 85.2673H271.84C270.18 85.2673 268.85 87.0373 268.85 88.6973V86.3173C268.85 84.6573 270.18 82.8873 271.84 82.8873H300.94Z" fill="#8C96A0"/>
<path d="M211.41 59.7873C210.17 60.0573 209 59.1173 209 57.8473V52.7373H211.89C211.89 52.8673 211.9 53.0073 211.91 53.1373C212.13 55.2573 213.98 56.6573 216.04 56.2473L216.57 58.6573L211.41 59.7873Z" fill="#FAB4B4"/>
<path d="M320.68 152.737V152.747H263.16V152.737V147.787V147.437H320.68V147.787V152.737Z" fill="#0A1E3C"/>
<path d="M273.39 88.7773C273.39 88.1873 272.91 87.7173 272.33 87.7173C271.75 87.7173 271.27 88.1873 271.27 88.7773C271.27 89.3673 271.74 89.8373 272.33 89.8373C272.92 89.8373 273.39 89.3573 273.39 88.7773ZM268.85 90.6873V88.6973C268.85 87.0373 270.18 85.2673 271.84 85.2673H277.59V91.5773H268.85V90.6873Z" fill="#8C96A0"/>
<path d="M215.78 52.9573C216.5 52.8173 217.05 52.8373 217.5 53.2673C217.61 53.3673 217.61 53.5473 217.51 53.6673L217.38 53.8173C217.02 54.2173 216.57 54.5473 216.07 54.6773C216.06 54.6773 216.05 54.6773 216.03 54.6873C215.43 54.8273 214.81 54.6973 214.3 54.3873L214.2 54.3273C214.08 54.2473 214.05 54.0673 214.14 53.9273C214.51 53.3473 215.02 53.0973 215.78 52.9573Z" fill="#0A1E3C"/>
<path d="M215.25 48.57C217.31 48.17 219.16 49.56 219.38 51.68C219.59 53.81 218.1 55.85 216.04 56.25C213.98 56.66 212.13 55.26 211.91 53.14C211.9 53.01 211.89 52.87 211.89 52.74C211.89 50.77 213.32 48.94 215.25 48.57Z" stroke="#161616" stroke-width="2" stroke-miterlimit="10"/>
<path d="M281.69 37.26C281.69 37.26 281.72 37.33 281.74 37.37" stroke="#161616" stroke-width="2" stroke-linecap="round" stroke-linejoin="round"/>
<path d="M293.36 37.26C293.36 37.26 293.39 37.33 293.41 37.37" stroke="#161616" stroke-width="2" stroke-linecap="round" stroke-linejoin="round"/>
<path d="M285.56 36.37L284.12 41.68C283.87 42.77 284.23 43.73 285.28 43.84H288.54" stroke="#161616" stroke-width="2" stroke-linecap="round" stroke-linejoin="round"/>
<path d="M295.11 53.63C297.28 51.86 297.7 51.04 298.11 50.2" stroke="#161616" stroke-width="2" stroke-linecap="round" stroke-linejoin="round"/>
<path d="M300.11 45.22V50.2V51.03V53.74" stroke="#161616" stroke-width="2" stroke-linecap="round" stroke-linejoin="round"/>
<path d="M279.11 51.09L279.14 51.25L279.72 54.57" stroke="#161616" stroke-width="2" stroke-linecap="round" stroke-linejoin="round"/>
<path d="M287.55 55.7C287.89 55.71 288.23 55.72 288.57 55.72C290.91 55.75 293.24 55.62 295.34 55.3C297.2 55.02 298.87 54.61 300.23 54.04C300.78 53.82 301.28 53.57 301.71 53.3" stroke="#161616" stroke-width="2" stroke-linecap="round" stroke-linejoin="round"/>
<path d="M276.98 53.91C277.8 54.22 278.71 54.49 279.69 54.72C281.96 55.25 284.57 55.58 287.23 55.68" stroke="#161616" stroke-width="2" stroke-linecap="round" stroke-linejoin="round"/>
<path d="M275.38 37.26L275.43 37.51L275.57 38.29L275.64 38.67L276.93 45.77C276.96 45.92 277 46.06 277.04 46.21C277.5 48.02 278.26 49.63 279.24 51C281.15 53.67 283.94 55.39 287.23 55.68C287.34 55.7 287.44 55.7 287.55 55.7C287.88 55.73 288.22 55.74 288.57 55.72C289.47 55.7 290.41 55.58 291.37 55.34" stroke="#161616" stroke-width="2" stroke-linecap="round" stroke-linejoin="round"/>
<path d="M275.66 24.59V24.64V38.67" stroke="#161616" stroke-width="2" stroke-linecap="round" stroke-linejoin="round"/>
<path d="M299.42 29.19L301.03 38.4" stroke="#161616" stroke-width="2" stroke-linecap="round" stroke-linejoin="round"/>
<path d="M296.84 25.54C297.61 27.06 299.26 29.8 300.77 28.74" stroke="#161616" stroke-width="2" stroke-linecap="round" stroke-linejoin="round"/>
<path d="M296.46 24.71C296.52 24.86 296.65 25.15 296.83 25.51" stroke="#161616" stroke-width="2" stroke-linecap="round" stroke-linejoin="round"/>
<path d="M296.4 24.59H296.41V24.61V24.62C296.41 24.64 296.42 24.66 296.44 24.7" stroke="#161616" stroke-width="2" stroke-linecap="round" stroke-linejoin="round"/>
<path d="M296.45 24.7C296.45 24.7 296.42 24.64 296.42 24.62" stroke="#161616" stroke-width="2" stroke-linecap="round" stroke-linejoin="round"/>
<path d="M296.45 24.7C296.45 24.7 296.46 24.7 296.46 24.71" stroke="#161616" stroke-width="2" stroke-linecap="round" stroke-linejoin="round"/>
<path d="M296.83 25.51C296.67 25.14 296.53 24.85 296.46 24.71" stroke="#161616" stroke-width="2" stroke-linecap="round" stroke-linejoin="round"/>
<path d="M296.83 25.51C296.83 25.51 296.83 25.53 296.83 25.54" stroke="#161616" stroke-width="2" stroke-linecap="round" stroke-linejoin="round"/>
<path d="M290.89 24.99C291.55 26.5 293.84 31.27 296.4 30.89C297.4 30.74 297.74 30.01 297.75 29.09C297.76 27.93 297.24 26.48 296.84 25.54" stroke="#161616" stroke-width="2" stroke-linecap="round" stroke-linejoin="round"/>
<path d="M290.7 24.53C290.7 24.53 290.71 24.55 290.73 24.6C290.75 24.64 290.77 24.7 290.8 24.77" stroke="#161616" stroke-width="2" stroke-linecap="round" stroke-linejoin="round"/>
<path d="M290.8 24.77C290.77 24.7 290.75 24.64 290.73 24.6" stroke="#161616" stroke-width="2" stroke-linecap="round" stroke-linejoin="round"/>
<path d="M290.8 24.77C290.82 24.83 290.85 24.9 290.89 24.99" stroke="#161616" stroke-width="2" stroke-linecap="round" stroke-linejoin="round"/>
<path d="M287.61 29.11C288.51 30 289.54 30.63 290.48 30.56C292.77 30.38 291.42 26.36 290.89 24.99" stroke="#161616" stroke-width="2" stroke-linecap="round" stroke-linejoin="round"/>
<path d="M287.61 29.11C287.8 27.18 286.01 24.09 285.45 24.37C284.61 24.7 285.86 27.38 287.61 29.11Z" stroke="#161616" stroke-width="2" stroke-linecap="round" stroke-linejoin="round"/>
<path d="M276.76 24.64C277.98 27.96 280.03 28.46 280.3 24.7C280.3 24.7 282.02 30.95 286.35 30.55C287.19 30.42 287.55 29.85 287.61 29.11" stroke="#161616" stroke-width="2" stroke-linecap="round" stroke-linejoin="round"/>
<path d="M300.82 38.92C300.9 38.75 300.99 38.58 301.08 38.43C301.46 37.77 301.91 37.3 302.38 36.98C304.1 35.85 306.04 36.93 305.42 39.75C302.88 47.62 301.04 45.48 300.64 44.86C300.58 44.77 300.55 44.72 300.55 44.72" stroke="#161616" stroke-width="2" stroke-linecap="round" stroke-linejoin="round"/>
<path d="M302.91 39.5C302.96 40.44 302.7 41.53 301.85 42.94" stroke="#161616" stroke-width="2" stroke-linecap="round" stroke-linejoin="round"/>
<path d="M275.21 38.36C274.72 37.75 272.34 36.54 272.39 40.24C273.28 46.66 276.71 46.66 276.82 46.27" stroke="#161616" stroke-width="2" stroke-linecap="round" stroke-linejoin="round"/>
<path d="M275.32 37.53C271.62 28.79 272.22 22.1 275.38 21.05L276.32 20.66C276.32 20.66 277.48 15.85 282.63 14.08C290.31 11.65 295.57 13.75 291.86 16.24C296.59 15.16 304.42 16.4 300.99 19.17C303.35 20.91 304.97 22.65 302.54 23.32" stroke="#161616" stroke-width="2" stroke-linecap="round" stroke-linejoin="round"/>
<path d="M302.26 36.81C303.75 32.58 303.85 28.15 302.93 23.59" stroke="#161616" stroke-width="2" stroke-linecap="round" stroke-linejoin="round"/>
<path d="M278.92 51.29C275.31 51.95 273.1 53.49 274.38 57.78C272.39 57.67 270.6 58.25 269.07 60.43C266.24 60.44 264.47 62.2 263.1 64.64C261.19 64.58 259.56 65.53 258.45 68.45C256.53 68.68 254.93 69.95 254.03 73.54C252.01 74.35 250.33 75.6 250.16 78.91C247.97 80.53 246.63 82.51 247 85.21C244.5 87.11 243.47 89.36 244.18 92.02C242.35 93.7 241.65 95.65 242.63 97.99C241.3 99.78 241.17 101.66 242.14 103.63C240.77 106.17 240.76 108.32 242.36 110C241.44 112.72 241.8 114.55 243.3 115.58C243.16 118.17 244.13 119.95 245.79 120.67C246.43 123.2 247.91 124.45 250.16 124.54C251.54 126.05 253.43 126.2 255.91 124.76C257.23 125.62 258.51 125.97 259.73 125.84C260.64 125.77 261.52 125.44 262.38 124.88C264.27 126.13 266.17 126.11 268.08 124.54C268.35 124.69 268.61 124.82 268.87 124.93C270.99 125.81 272.66 125.17 274.11 123.77C276.17 124.41 277.76 123.38 278.48 121.56C280.36 121.45 281.11 120.09 281.08 118.68V104.5C280.92 104.32 280.75 104.17 280.58 104.04C279.44 103.21 277.91 103.29 276.04 104.13C273.83 102.97 271.67 102.98 269.57 104.41C269.33 104.29 269.1 104.19 268.85 104.12C267.34 103.61 265.67 103.83 263.87 104.74C262.17 104.12 260.28 104.04 257.96 105.29C255.85 104.25 253.78 103.94 251.76 104.69" stroke="#161616" stroke-width="2" stroke-linecap="round" stroke-linejoin="round"/>
<path d="M281.02 103.91H283.12V116.3C282.93 117.53 282.4 118.37 281.41 118.68" stroke="#161616" stroke-width="2" stroke-linecap="round" stroke-linejoin="round"/>
<path d="M260.44 104.08C260.35 102.44 260.93 101.18 261.94 100.15C260.85 97.19 261.14 94.67 262.77 92.57C262.02 90.23 262.09 88.34 263.04 86.93" stroke="#161616" stroke-width="2" stroke-linecap="round" stroke-linejoin="round"/>
<path d="M283.35 104.51L295.57 92.35C297.12 90.75 298.5 92.74 298.11 94.51C297.73 95.67 296.73 97.27 296.73 97.27L293.08 102.97L304.18 99.97L304.31 99.93" stroke="#161616" stroke-width="2" stroke-linecap="round" stroke-linejoin="round"/>
<path d="M304.36 97.27C305.14 96.5 306.36 96.66 306.58 97.88L306.86 100.04L306.91 100.43C306.9 100.57 306.88 100.71 306.84 100.85C306.69 101.56 306.2 102.28 305.31 103.03L299.22 106.4" stroke="#161616" stroke-width="2" stroke-linecap="round" stroke-linejoin="round"/>
<path d="M299.61 109.94L303.65 107.51C304.44 106.94 305.08 106.38 305.56 105.85C306.38 104.95 306.78 104.1 306.78 103.31C306.78 102.98 306.71 102.67 306.58 102.36" stroke="#161616" stroke-width="2" stroke-linecap="round" stroke-linejoin="round"/>
<path d="M299.11 114.42L304.25 109.97C304.84 109.34 305.3 108.78 305.6 108.29H305.61C306.25 107.29 306.33 106.56 305.91 106.01" stroke="#161616" stroke-width="2" stroke-linecap="round" stroke-linejoin="round"/>
<path d="M283.18 116.03C288.11 117.02 292.8 117.8 296.84 118.02C298.42 117.73 299.56 116.9 300.6 115.97L304.06 112.19L304.7 111.49C305.35 110.66 305.64 109.58 305.75 108.39" stroke="#161616" stroke-width="2" stroke-linecap="round" stroke-linejoin="round"/>
<path d="M289.43 77.86V60.05" stroke="#161616" stroke-width="2" stroke-linecap="round" stroke-linejoin="round"/>
<path d="M290.04 60.05L292.42 63.7C294.19 66.91 289.98 65.8 289.49 60.71" stroke="#161616" stroke-width="2" stroke-linecap="round" stroke-linejoin="round"/>
<path d="M288.38 57.17L288.43 58.61C288.52 59.94 290.37 60.05 290.48 58.61V56.95C290.43 56.01 288.38 56.06 288.38 57.17Z" stroke="#161616" stroke-width="2" stroke-linecap="round" stroke-linejoin="round"/>
<path d="M300.11 51.03C303.78 51.32 306.19 53.08 304.81 57.94C307.78 57.35 310.23 58.44 311.11 60.65C314.35 60.27 316.2 61.76 316.87 64.25C320.4 64.63 322.33 65.81 322.23 68.01C324.15 68.71 325.58 69.79 326.1 71.55C328.64 72.7 330.36 74.25 330.7 76.47C332.97 77.45 334.82 78.89 335.23 81.9C337.42 83.22 338.73 85.09 338.99 87.59C340.88 89.13 341.59 90.89 341.33 92.83C343.45 94.44 344.2 96.46 343.25 98.99C345.03 101.29 345.44 103.44 344.04 105.39C345.75 107.75 346.13 109.77 344.36 111.77C344.69 114.56 344.59 117.09 342.7 118.57C343.26 120.77 342.77 122.83 339.55 124.49C338.33 127.53 334.54 129.56 331.58 127.7C328.75 128.44 325.79 127.18 324.57 124.46C324.52 124.36 324.48 124.26 324.44 124.16C321.88 124.29 319.98 123.12 318.91 120.34C315.3 119.96 313.64 118.21 312.99 115.75C311.03 114.63 309.83 112.77 309.79 109.77V92.46" stroke="#161616" stroke-width="2" stroke-linecap="round" stroke-linejoin="round"/>
<path d="M309.62 109.77C308.51 109 307.11 106.79 306.78 104.51L306.8 103.31L306.84 100.85L306.86 100.04L307.02 91.13V90.38L309.73 92.49H309.79C312.01 92.49 314 93.94 315.87 96.06C318.76 96.19 321.22 97.5 323.23 100.04C326.23 100.1 327.98 101.77 329.31 103.97C332.42 104.15 334.36 105.57 336.06 107.23" stroke="#161616" stroke-width="2" stroke-linecap="round" stroke-linejoin="round"/>
<path d="M320.74 86.93C321.63 88.39 321.93 90.18 321.01 92.68C322.55 94.83 322.93 96.7 322.34 98.32" stroke="#161616" stroke-width="2" stroke-linecap="round" stroke-linejoin="round"/>
<path d="M324.39 124.54C324.35 125.24 324.17 126.02 323.84 126.87C324.89 128.5 325.05 130.51 324.06 133.01C325.52 135.28 325.43 137.36 323.95 139.26C324.37 141.83 323.93 143.71 322.68 144.96C322.66 145.11 322.63 145.25 322.6 145.39C322.39 146.39 321.96 147.2 321.18 147.44H263.16C262.03 147.26 261.7 146.44 261.81 145.27C261.81 145.2 261.82 145.14 261.83 145.07C259.81 143.39 259.32 141.42 259.89 139.26C258.47 137.28 258.15 135.21 259.73 133.01C258.56 130.35 259.1 128.04 260 126.98C259.83 126.35 259.72 125.92 259.73 125.87" stroke="#161616" stroke-width="2" stroke-linecap="round" stroke-linejoin="round"/>
<path d="M262.27 145.31H322.12" stroke="#161616" stroke-width="2" stroke-linecap="round" stroke-linejoin="round"/>
<path d="M268.85 104.13V104.12V91.58V90.69" stroke="#161616" stroke-width="2" stroke-linecap="round" stroke-linejoin="round"/>
<path d="M304.14 112.26V126.31C304.14 127.75 302.82 129.41 300.94 129.41H271.84C270.24 129.41 268.85 127.81 268.85 126.31V124.99" stroke="#161616" stroke-width="2" stroke-linecap="round" stroke-linejoin="round"/>
<path d="M304.14 91.13V97.27V99.82" stroke="#161616" stroke-width="2" stroke-linecap="round" stroke-linejoin="round"/>
<path d="M268.85 88.7C268.85 87.04 270.18 85.27 271.84 85.27H300.94C302.93 85.27 304.14 86.93 304.14 88.7" stroke="#161616" stroke-width="2" stroke-linecap="round" stroke-linejoin="round"/>
<path d="M268.85 90.69V86.32C268.85 84.66 270.18 82.89 271.84 82.89H300.94C302.93 82.89 304.14 84.55 304.14 86.32V91.13" stroke="#161616" stroke-width="2" stroke-linecap="round" stroke-linejoin="round"/>
<path d="M268.91 91.58H277.59V85.55" stroke="#161616" stroke-width="2" stroke-linecap="round" stroke-linejoin="round"/>
<path d="M272.33 89.84C272.915 89.84 273.39 89.3654 273.39 88.78C273.39 88.1946 272.915 87.72 272.33 87.72C271.745 87.72 271.27 88.1946 271.27 88.78C271.27 89.3654 271.745 89.84 272.33 89.84Z" stroke="#161616" stroke-width="2" stroke-linecap="round" stroke-linejoin="round"/>
<path d="M275.44 88.7H275.49" stroke="#161616" stroke-width="2" stroke-linecap="round" stroke-linejoin="round"/>
<path d="M304.15 89.35L306.97 91.13" stroke="#161616" stroke-width="2" stroke-linecap="round" stroke-linejoin="round"/>
<path d="M263.16 147.79V152.74" stroke="#161616" stroke-width="2" stroke-linecap="round" stroke-linejoin="round"/>
<path d="M320.68 147.79V152.74" stroke="#161616" stroke-width="2" stroke-linecap="round" stroke-linejoin="round"/>
<path d="M262.36 152.75H263.16H320.68H321.23" stroke="#161616" stroke-width="2" stroke-linecap="round" stroke-linejoin="round"/>
<path d="M286.29 48.44C286.29 48.44 288.27 47.94 288.77 48.52C289.24 49.08 289.25 49.45 289.25 49.48" stroke="#161616" stroke-width="2" stroke-linecap="round" stroke-linejoin="round"/>
<path d="M260.13 29.92L268.18 32.43" stroke="#161616" stroke-width="2" stroke-linecap="round" stroke-linejoin="round"/>
<path d="M260.13 44.59L268.59 41.94" stroke="#161616" stroke-width="2" stroke-linecap="round" stroke-linejoin="round"/>
<path d="M263.72 37.4L268.18 37.67" stroke="#161616" stroke-width="2" stroke-linecap="round" stroke-linejoin="round"/>
<path d="M246.31 20.93L246.32 20.91L249.26 13.61" stroke="#161616" stroke-width="2" stroke-linecap="round" stroke-linejoin="round"/>
<path d="M230.32 47.64C230.88 48.24 231.51 48.8 232.21 49.27C232.32 49.35 232.43 49.42 232.55 49.5C232.61 49.53 232.67 49.57 232.73 49.61C233.88 50.32 235.18 50.83 236.63 51.11C241.15 51.99 245.86 49.92 248.3 46.01C252.17 39.8 249.4 31.94 242.93 29.33L244.99 24.23" stroke="#161616" stroke-width="2" stroke-linecap="round" stroke-linejoin="round"/>
<path d="M228.11 35.65C227.18 37.98 227.06 40.44 227.64 42.7" stroke="#161616" stroke-width="2" stroke-linecap="round" stroke-linejoin="round"/>
<path d="M225.4 36.14L228.31 35.15L229.68 37.56" stroke="#161616" stroke-width="2" stroke-linecap="round" stroke-linejoin="round"/>
<path d="M246.32 20.91C247.24 21.28 247.68 22.32 247.31 23.24C246.94 24.16 245.9 24.6 244.99 24.23C244.07 23.86 243.63 22.82 243.99 21.91C244.36 20.99 245.4 20.55 246.32 20.91Z" stroke="#161616" stroke-width="2" stroke-miterlimit="10"/>
<path d="M232.48 48.86V44.31C232.48 43.05 231.31 42.1 230.08 42.37L214.63 45.73L210.56 46.61C209.65 46.81 209 47.61 209 48.55V57.85C209 59.12 210.17 60.06 211.41 59.79L216.57 58.66L230.92 55.52C231.83 55.32 232.48 54.52 232.48 53.58V49.61" stroke="#161616" stroke-width="2" stroke-linecap="round" stroke-linejoin="round"/>
</g>
</g>
<defs>
<clipPath id="clip0_796_97699">
<rect width="238.7" height="136.95" fill="white" transform="translate(86 154.333)"/>
</clipPath>
<clipPath id="clip1_796_97699">
<rect width="191" height="140" fill="white" transform="translate(12 13)"/>
</clipPath>
<clipPath id="clip2_796_97699">
<rect width="164.04" height="145.09" fill="white" transform="translate(50 13)"/>
</clipPath>
<clipPath id="clip3_796_97699">
<rect width="146" height="140" fill="white" transform="translate(204 12)"/>
</clipPath>
<clipPath id="clip4_796_97699">
<rect width="138.52" height="141.75" fill="white" transform="translate(208 12)"/>
</clipPath>
</defs>
</svg>
